G04 #@! TF.GenerationSoftware,KiCad,Pcbnew,8.0.4*
G04 #@! TF.CreationDate,2024-08-16T09:38:16+02:00*
G04 #@! TF.ProjectId,Purrtico_TLA,50757272-7469-4636-9f5f-544c412e6b69,01*
G04 #@! TF.SameCoordinates,Original*
G04 #@! TF.FileFunction,Legend,Bot*
G04 #@! TF.FilePolarity,Positive*
%FSLAX46Y46*%
G04 Gerber Fmt 4.6, Leading zero omitted, Abs format (unit mm)*
G04 Created by KiCad (PCBNEW 8.0.4) date 2024-08-16 09:38:16*
%MOMM*%
%LPD*%
G01*
G04 APERTURE LIST*
G04 Aperture macros list*
%AMRoundRect*
0 Rectangle with rounded corners*
0 $1 Rounding radius*
0 $2 $3 $4 $5 $6 $7 $8 $9 X,Y pos of 4 corners*
0 Add a 4 corners polygon primitive as box body*
4,1,4,$2,$3,$4,$5,$6,$7,$8,$9,$2,$3,0*
0 Add four circle primitives for the rounded corners*
1,1,$1+$1,$2,$3*
1,1,$1+$1,$4,$5*
1,1,$1+$1,$6,$7*
1,1,$1+$1,$8,$9*
0 Add four rect primitives between the rounded corners*
20,1,$1+$1,$2,$3,$4,$5,0*
20,1,$1+$1,$4,$5,$6,$7,0*
20,1,$1+$1,$6,$7,$8,$9,0*
20,1,$1+$1,$8,$9,$2,$3,0*%
G04 Aperture macros list end*
%ADD10C,0.203200*%
%ADD11C,0.120000*%
%ADD12R,1.700000X1.700000*%
%ADD13O,1.700000X1.700000*%
%ADD14C,1.600000*%
%ADD15C,5.600000*%
%ADD16R,1.600000X1.600000*%
%ADD17RoundRect,0.250000X-0.312500X-0.625000X0.312500X-0.625000X0.312500X0.625000X-0.312500X0.625000X0*%
%ADD18RoundRect,0.250000X0.312500X0.625000X-0.312500X0.625000X-0.312500X-0.625000X0.312500X-0.625000X0*%
G04 APERTURE END LIST*
D10*
X120053990Y-43137030D02*
X120053990Y-42895125D01*
X120053990Y-42895125D02*
X119993514Y-42774173D01*
X119993514Y-42774173D02*
X119872562Y-42653220D01*
X119872562Y-42653220D02*
X119630657Y-42592744D01*
X119630657Y-42592744D02*
X119207324Y-42592744D01*
X119207324Y-42592744D02*
X118965419Y-42653220D01*
X118965419Y-42653220D02*
X118844467Y-42774173D01*
X118844467Y-42774173D02*
X118783990Y-42895125D01*
X118783990Y-42895125D02*
X118783990Y-43137030D01*
X118783990Y-43137030D02*
X118844467Y-43257982D01*
X118844467Y-43257982D02*
X118965419Y-43378935D01*
X118965419Y-43378935D02*
X119207324Y-43439411D01*
X119207324Y-43439411D02*
X119630657Y-43439411D01*
X119630657Y-43439411D02*
X119872562Y-43378935D01*
X119872562Y-43378935D02*
X119993514Y-43257982D01*
X119993514Y-43257982D02*
X120053990Y-43137030D01*
X120053990Y-42048459D02*
X119025895Y-42048459D01*
X119025895Y-42048459D02*
X118904943Y-41987982D01*
X118904943Y-41987982D02*
X118844467Y-41927506D01*
X118844467Y-41927506D02*
X118783990Y-41806554D01*
X118783990Y-41806554D02*
X118783990Y-41564649D01*
X118783990Y-41564649D02*
X118844467Y-41443697D01*
X118844467Y-41443697D02*
X118904943Y-41383220D01*
X118904943Y-41383220D02*
X119025895Y-41322744D01*
X119025895Y-41322744D02*
X120053990Y-41322744D01*
X120053990Y-40899411D02*
X120053990Y-40173697D01*
X118783990Y-40536554D02*
X120053990Y-40536554D01*
X119267800Y-39750364D02*
X119267800Y-38782745D01*
X123355990Y-76157030D02*
X123355990Y-75915125D01*
X123355990Y-75915125D02*
X123295514Y-75794173D01*
X123295514Y-75794173D02*
X123174562Y-75673220D01*
X123174562Y-75673220D02*
X122932657Y-75612744D01*
X122932657Y-75612744D02*
X122509324Y-75612744D01*
X122509324Y-75612744D02*
X122267419Y-75673220D01*
X122267419Y-75673220D02*
X122146467Y-75794173D01*
X122146467Y-75794173D02*
X122085990Y-75915125D01*
X122085990Y-75915125D02*
X122085990Y-76157030D01*
X122085990Y-76157030D02*
X122146467Y-76277982D01*
X122146467Y-76277982D02*
X122267419Y-76398935D01*
X122267419Y-76398935D02*
X122509324Y-76459411D01*
X122509324Y-76459411D02*
X122932657Y-76459411D01*
X122932657Y-76459411D02*
X123174562Y-76398935D01*
X123174562Y-76398935D02*
X123295514Y-76277982D01*
X123295514Y-76277982D02*
X123355990Y-76157030D01*
X123355990Y-75068459D02*
X122327895Y-75068459D01*
X122327895Y-75068459D02*
X122206943Y-75007982D01*
X122206943Y-75007982D02*
X122146467Y-74947506D01*
X122146467Y-74947506D02*
X122085990Y-74826554D01*
X122085990Y-74826554D02*
X122085990Y-74584649D01*
X122085990Y-74584649D02*
X122146467Y-74463697D01*
X122146467Y-74463697D02*
X122206943Y-74403220D01*
X122206943Y-74403220D02*
X122327895Y-74342744D01*
X122327895Y-74342744D02*
X123355990Y-74342744D01*
X123355990Y-73919411D02*
X123355990Y-73193697D01*
X122085990Y-73556554D02*
X123355990Y-73556554D01*
X122720990Y-43137030D02*
X122720990Y-42895125D01*
X122720990Y-42895125D02*
X122660514Y-42774173D01*
X122660514Y-42774173D02*
X122539562Y-42653220D01*
X122539562Y-42653220D02*
X122297657Y-42592744D01*
X122297657Y-42592744D02*
X121874324Y-42592744D01*
X121874324Y-42592744D02*
X121632419Y-42653220D01*
X121632419Y-42653220D02*
X121511467Y-42774173D01*
X121511467Y-42774173D02*
X121450990Y-42895125D01*
X121450990Y-42895125D02*
X121450990Y-43137030D01*
X121450990Y-43137030D02*
X121511467Y-43257982D01*
X121511467Y-43257982D02*
X121632419Y-43378935D01*
X121632419Y-43378935D02*
X121874324Y-43439411D01*
X121874324Y-43439411D02*
X122297657Y-43439411D01*
X122297657Y-43439411D02*
X122539562Y-43378935D01*
X122539562Y-43378935D02*
X122660514Y-43257982D01*
X122660514Y-43257982D02*
X122720990Y-43137030D01*
X122720990Y-42048459D02*
X121692895Y-42048459D01*
X121692895Y-42048459D02*
X121571943Y-41987982D01*
X121571943Y-41987982D02*
X121511467Y-41927506D01*
X121511467Y-41927506D02*
X121450990Y-41806554D01*
X121450990Y-41806554D02*
X121450990Y-41564649D01*
X121450990Y-41564649D02*
X121511467Y-41443697D01*
X121511467Y-41443697D02*
X121571943Y-41383220D01*
X121571943Y-41383220D02*
X121692895Y-41322744D01*
X121692895Y-41322744D02*
X122720990Y-41322744D01*
X122720990Y-40899411D02*
X122720990Y-40173697D01*
X121450990Y-40536554D02*
X122720990Y-40536554D01*
X121934800Y-39750364D02*
X121934800Y-38782745D01*
X121450990Y-39266554D02*
X122418609Y-39266554D01*
X101765990Y-43378935D02*
X103035990Y-43378935D01*
X101765990Y-42774173D02*
X103035990Y-42774173D01*
X103035990Y-42774173D02*
X101765990Y-42048458D01*
X101765990Y-42048458D02*
X103035990Y-42048458D01*
X102249800Y-41443697D02*
X102249800Y-40476078D01*
X101765990Y-40959887D02*
X102733609Y-40959887D01*
X149520696Y-62251485D02*
X149641649Y-62191009D01*
X149641649Y-62191009D02*
X149823077Y-62191009D01*
X149823077Y-62191009D02*
X150004506Y-62251485D01*
X150004506Y-62251485D02*
X150125458Y-62372437D01*
X150125458Y-62372437D02*
X150185935Y-62493390D01*
X150185935Y-62493390D02*
X150246411Y-62735294D01*
X150246411Y-62735294D02*
X150246411Y-62916723D01*
X150246411Y-62916723D02*
X150185935Y-63158628D01*
X150185935Y-63158628D02*
X150125458Y-63279580D01*
X150125458Y-63279580D02*
X150004506Y-63400533D01*
X150004506Y-63400533D02*
X149823077Y-63461009D01*
X149823077Y-63461009D02*
X149702125Y-63461009D01*
X149702125Y-63461009D02*
X149520696Y-63400533D01*
X149520696Y-63400533D02*
X149460220Y-63340056D01*
X149460220Y-63340056D02*
X149460220Y-62916723D01*
X149460220Y-62916723D02*
X149702125Y-62916723D01*
X148915935Y-63461009D02*
X148915935Y-62191009D01*
X148915935Y-62191009D02*
X148190220Y-63461009D01*
X148190220Y-63461009D02*
X148190220Y-62191009D01*
X147585459Y-63461009D02*
X147585459Y-62191009D01*
X147585459Y-62191009D02*
X147283078Y-62191009D01*
X147283078Y-62191009D02*
X147101649Y-62251485D01*
X147101649Y-62251485D02*
X146980697Y-62372437D01*
X146980697Y-62372437D02*
X146920220Y-62493390D01*
X146920220Y-62493390D02*
X146859744Y-62735294D01*
X146859744Y-62735294D02*
X146859744Y-62916723D01*
X146859744Y-62916723D02*
X146920220Y-63158628D01*
X146920220Y-63158628D02*
X146980697Y-63279580D01*
X146980697Y-63279580D02*
X147101649Y-63400533D01*
X147101649Y-63400533D02*
X147283078Y-63461009D01*
X147283078Y-63461009D02*
X147585459Y-63461009D01*
X99225990Y-43378935D02*
X100495990Y-43378935D01*
X99225990Y-42774173D02*
X100495990Y-42774173D01*
X100495990Y-42774173D02*
X99225990Y-42048458D01*
X99225990Y-42048458D02*
X100495990Y-42048458D01*
X99709800Y-41443697D02*
X99709800Y-40476078D01*
X136055990Y-76271935D02*
X137325990Y-76271935D01*
X136055990Y-75667173D02*
X137325990Y-75667173D01*
X137325990Y-75667173D02*
X136055990Y-74941458D01*
X136055990Y-74941458D02*
X137325990Y-74941458D01*
X150367363Y-66636009D02*
X149944030Y-67906009D01*
X149944030Y-67906009D02*
X149520696Y-66636009D01*
X149097364Y-67422199D02*
X148129745Y-67422199D01*
X150367363Y-56476009D02*
X149944030Y-57746009D01*
X149944030Y-57746009D02*
X149520696Y-56476009D01*
X149097364Y-57262199D02*
X148129745Y-57262199D01*
X148613554Y-57746009D02*
X148613554Y-56778390D01*
X71743928Y-41724959D02*
X72167262Y-41120197D01*
X72469643Y-41724959D02*
X72469643Y-40454959D01*
X72469643Y-40454959D02*
X71985833Y-40454959D01*
X71985833Y-40454959D02*
X71864881Y-40515435D01*
X71864881Y-40515435D02*
X71804404Y-40575911D01*
X71804404Y-40575911D02*
X71743928Y-40696863D01*
X71743928Y-40696863D02*
X71743928Y-40878292D01*
X71743928Y-40878292D02*
X71804404Y-40999244D01*
X71804404Y-40999244D02*
X71864881Y-41059721D01*
X71864881Y-41059721D02*
X71985833Y-41120197D01*
X71985833Y-41120197D02*
X72469643Y-41120197D01*
X70655357Y-40878292D02*
X70655357Y-41724959D01*
X70957738Y-40394483D02*
X71260119Y-41301625D01*
X71260119Y-41301625D02*
X70473928Y-41301625D01*
X70050595Y-40575911D02*
X69990119Y-40515435D01*
X69990119Y-40515435D02*
X69869166Y-40454959D01*
X69869166Y-40454959D02*
X69566785Y-40454959D01*
X69566785Y-40454959D02*
X69445833Y-40515435D01*
X69445833Y-40515435D02*
X69385357Y-40575911D01*
X69385357Y-40575911D02*
X69324880Y-40696863D01*
X69324880Y-40696863D02*
X69324880Y-40817816D01*
X69324880Y-40817816D02*
X69385357Y-40999244D01*
X69385357Y-40999244D02*
X70111071Y-41724959D01*
X70111071Y-41724959D02*
X69324880Y-41724959D01*
X72698428Y-77072959D02*
X73121762Y-76468197D01*
X73424143Y-77072959D02*
X73424143Y-75802959D01*
X73424143Y-75802959D02*
X72940333Y-75802959D01*
X72940333Y-75802959D02*
X72819381Y-75863435D01*
X72819381Y-75863435D02*
X72758904Y-75923911D01*
X72758904Y-75923911D02*
X72698428Y-76044863D01*
X72698428Y-76044863D02*
X72698428Y-76226292D01*
X72698428Y-76226292D02*
X72758904Y-76347244D01*
X72758904Y-76347244D02*
X72819381Y-76407721D01*
X72819381Y-76407721D02*
X72940333Y-76468197D01*
X72940333Y-76468197D02*
X73424143Y-76468197D01*
X72275095Y-75802959D02*
X71488904Y-75802959D01*
X71488904Y-75802959D02*
X71912238Y-76286768D01*
X71912238Y-76286768D02*
X71730809Y-76286768D01*
X71730809Y-76286768D02*
X71609857Y-76347244D01*
X71609857Y-76347244D02*
X71549381Y-76407721D01*
X71549381Y-76407721D02*
X71488904Y-76528673D01*
X71488904Y-76528673D02*
X71488904Y-76831054D01*
X71488904Y-76831054D02*
X71549381Y-76952006D01*
X71549381Y-76952006D02*
X71609857Y-77012483D01*
X71609857Y-77012483D02*
X71730809Y-77072959D01*
X71730809Y-77072959D02*
X72093666Y-77072959D01*
X72093666Y-77072959D02*
X72214619Y-77012483D01*
X72214619Y-77012483D02*
X72275095Y-76952006D01*
X70884142Y-77072959D02*
X70642238Y-77072959D01*
X70642238Y-77072959D02*
X70521285Y-77012483D01*
X70521285Y-77012483D02*
X70460809Y-76952006D01*
X70460809Y-76952006D02*
X70339857Y-76770578D01*
X70339857Y-76770578D02*
X70279380Y-76528673D01*
X70279380Y-76528673D02*
X70279380Y-76044863D01*
X70279380Y-76044863D02*
X70339857Y-75923911D01*
X70339857Y-75923911D02*
X70400333Y-75863435D01*
X70400333Y-75863435D02*
X70521285Y-75802959D01*
X70521285Y-75802959D02*
X70763190Y-75802959D01*
X70763190Y-75802959D02*
X70884142Y-75863435D01*
X70884142Y-75863435D02*
X70944619Y-75923911D01*
X70944619Y-75923911D02*
X71005095Y-76044863D01*
X71005095Y-76044863D02*
X71005095Y-76347244D01*
X71005095Y-76347244D02*
X70944619Y-76468197D01*
X70944619Y-76468197D02*
X70884142Y-76528673D01*
X70884142Y-76528673D02*
X70763190Y-76589149D01*
X70763190Y-76589149D02*
X70521285Y-76589149D01*
X70521285Y-76589149D02*
X70400333Y-76528673D01*
X70400333Y-76528673D02*
X70339857Y-76468197D01*
X70339857Y-76468197D02*
X70279380Y-76347244D01*
X147120428Y-37364959D02*
X147543762Y-36760197D01*
X147846143Y-37364959D02*
X147846143Y-36094959D01*
X147846143Y-36094959D02*
X147362333Y-36094959D01*
X147362333Y-36094959D02*
X147241381Y-36155435D01*
X147241381Y-36155435D02*
X147180904Y-36215911D01*
X147180904Y-36215911D02*
X147120428Y-36336863D01*
X147120428Y-36336863D02*
X147120428Y-36518292D01*
X147120428Y-36518292D02*
X147180904Y-36639244D01*
X147180904Y-36639244D02*
X147241381Y-36699721D01*
X147241381Y-36699721D02*
X147362333Y-36760197D01*
X147362333Y-36760197D02*
X147846143Y-36760197D01*
X146031857Y-36518292D02*
X146031857Y-37364959D01*
X146334238Y-36034483D02*
X146636619Y-36941625D01*
X146636619Y-36941625D02*
X145850428Y-36941625D01*
X144701380Y-37364959D02*
X145427095Y-37364959D01*
X145064238Y-37364959D02*
X145064238Y-36094959D01*
X145064238Y-36094959D02*
X145185190Y-36276387D01*
X145185190Y-36276387D02*
X145306142Y-36397340D01*
X145306142Y-36397340D02*
X145427095Y-36457816D01*
X147120428Y-74956959D02*
X147543762Y-74352197D01*
X147846143Y-74956959D02*
X147846143Y-73686959D01*
X147846143Y-73686959D02*
X147362333Y-73686959D01*
X147362333Y-73686959D02*
X147241381Y-73747435D01*
X147241381Y-73747435D02*
X147180904Y-73807911D01*
X147180904Y-73807911D02*
X147120428Y-73928863D01*
X147120428Y-73928863D02*
X147120428Y-74110292D01*
X147120428Y-74110292D02*
X147180904Y-74231244D01*
X147180904Y-74231244D02*
X147241381Y-74291721D01*
X147241381Y-74291721D02*
X147362333Y-74352197D01*
X147362333Y-74352197D02*
X147846143Y-74352197D01*
X146031857Y-74110292D02*
X146031857Y-74956959D01*
X146334238Y-73626483D02*
X146636619Y-74533625D01*
X146636619Y-74533625D02*
X145850428Y-74533625D01*
X145124714Y-73686959D02*
X145003761Y-73686959D01*
X145003761Y-73686959D02*
X144882809Y-73747435D01*
X144882809Y-73747435D02*
X144822333Y-73807911D01*
X144822333Y-73807911D02*
X144761857Y-73928863D01*
X144761857Y-73928863D02*
X144701380Y-74170768D01*
X144701380Y-74170768D02*
X144701380Y-74473149D01*
X144701380Y-74473149D02*
X144761857Y-74715054D01*
X144761857Y-74715054D02*
X144822333Y-74836006D01*
X144822333Y-74836006D02*
X144882809Y-74896483D01*
X144882809Y-74896483D02*
X145003761Y-74956959D01*
X145003761Y-74956959D02*
X145124714Y-74956959D01*
X145124714Y-74956959D02*
X145245666Y-74896483D01*
X145245666Y-74896483D02*
X145306142Y-74836006D01*
X145306142Y-74836006D02*
X145366619Y-74715054D01*
X145366619Y-74715054D02*
X145427095Y-74473149D01*
X145427095Y-74473149D02*
X145427095Y-74170768D01*
X145427095Y-74170768D02*
X145366619Y-73928863D01*
X145366619Y-73928863D02*
X145306142Y-73807911D01*
X145306142Y-73807911D02*
X145245666Y-73747435D01*
X145245666Y-73747435D02*
X145124714Y-73686959D01*
D11*
X71654564Y-37952000D02*
X70200436Y-37952000D01*
X71654564Y-39772000D02*
X70200436Y-39772000D01*
X72609064Y-73766000D02*
X71154936Y-73766000D01*
X72609064Y-75586000D02*
X71154936Y-75586000D01*
X145576936Y-37698000D02*
X147031064Y-37698000D01*
X145576936Y-39518000D02*
X147031064Y-39518000D01*
X145576936Y-75290000D02*
X147031064Y-75290000D01*
X145576936Y-77110000D02*
X147031064Y-77110000D01*
%LPC*%
D12*
X100838000Y-78740000D03*
D13*
X103378000Y-78740000D03*
X105918000Y-78740000D03*
X94615000Y-76200000D03*
X92035000Y-76240000D03*
X89535000Y-76200000D03*
X94535000Y-78740000D03*
X92035000Y-78740000D03*
D12*
X89535000Y-78740000D03*
X154940000Y-67502000D03*
D13*
X152400000Y-67502000D03*
X154940000Y-64962000D03*
X152400000Y-64962000D03*
X154940000Y-62422000D03*
X152400000Y-62422000D03*
X154940000Y-59882000D03*
X152400000Y-59882000D03*
X154940000Y-57342000D03*
X152400000Y-57342000D03*
D14*
X78232000Y-74676000D03*
X83232000Y-74676000D03*
D12*
X133858000Y-78740000D03*
D13*
X136398000Y-78740000D03*
D15*
X64770000Y-38735000D03*
X153035000Y-38735000D03*
D16*
X136652000Y-65024000D03*
D14*
X136652000Y-67524000D03*
D16*
X78210000Y-38658000D03*
D14*
X78210000Y-41158000D03*
D12*
X104394000Y-44704000D03*
D13*
X106934000Y-44704000D03*
X109474000Y-44704000D03*
D14*
X72430000Y-78486000D03*
X77430000Y-78486000D03*
D12*
X116855000Y-36830000D03*
D13*
X119395000Y-36830000D03*
X121935000Y-36830000D03*
D16*
X130048000Y-57429621D03*
D14*
X130048000Y-59929621D03*
D12*
X97155000Y-36830000D03*
D13*
X99695000Y-36830000D03*
X102235000Y-36830000D03*
D12*
X119888000Y-78740000D03*
D13*
X122428000Y-78740000D03*
D15*
X64770000Y-76835000D03*
D16*
X123952000Y-45974000D03*
D14*
X123952000Y-49474000D03*
D16*
X91196500Y-38912000D03*
D14*
X91196500Y-41412000D03*
D16*
X69723000Y-50611000D03*
D14*
X69723000Y-53111000D03*
D16*
X88265000Y-48960000D03*
D14*
X88265000Y-51460000D03*
D16*
X114300000Y-74763621D03*
D14*
X114300000Y-77263621D03*
D16*
X129518000Y-37767349D03*
D14*
X129518000Y-41267349D03*
D15*
X153035000Y-76835000D03*
D16*
X128270000Y-67564000D03*
D14*
X128270000Y-70064000D03*
D17*
X69465000Y-38862000D03*
X72390000Y-38862000D03*
X70419500Y-74676000D03*
X73344500Y-74676000D03*
D18*
X147766500Y-38608000D03*
X144841500Y-38608000D03*
X147766500Y-76200000D03*
X144841500Y-76200000D03*
%LPD*%
M02*
