G04 #@! TF.GenerationSoftware,KiCad,Pcbnew,8.0.4*
G04 #@! TF.CreationDate,2024-08-16T09:38:16+02:00*
G04 #@! TF.ProjectId,Purrtico_TLA,50757272-7469-4636-9f5f-544c412e6b69,01*
G04 #@! TF.SameCoordinates,Original*
G04 #@! TF.FileFunction,Soldermask,Bot*
G04 #@! TF.FilePolarity,Negative*
%FSLAX46Y46*%
G04 Gerber Fmt 4.6, Leading zero omitted, Abs format (unit mm)*
G04 Created by KiCad (PCBNEW 8.0.4) date 2024-08-16 09:38:16*
%MOMM*%
%LPD*%
G01*
G04 APERTURE LIST*
G04 Aperture macros list*
%AMRoundRect*
0 Rectangle with rounded corners*
0 $1 Rounding radius*
0 $2 $3 $4 $5 $6 $7 $8 $9 X,Y pos of 4 corners*
0 Add a 4 corners polygon primitive as box body*
4,1,4,$2,$3,$4,$5,$6,$7,$8,$9,$2,$3,0*
0 Add four circle primitives for the rounded corners*
1,1,$1+$1,$2,$3*
1,1,$1+$1,$4,$5*
1,1,$1+$1,$6,$7*
1,1,$1+$1,$8,$9*
0 Add four rect primitives between the rounded corners*
20,1,$1+$1,$2,$3,$4,$5,0*
20,1,$1+$1,$4,$5,$6,$7,0*
20,1,$1+$1,$6,$7,$8,$9,0*
20,1,$1+$1,$8,$9,$2,$3,0*%
G04 Aperture macros list end*
%ADD10R,1.700000X1.700000*%
%ADD11O,1.700000X1.700000*%
%ADD12C,1.600000*%
%ADD13C,5.600000*%
%ADD14R,1.600000X1.600000*%
%ADD15RoundRect,0.250000X-0.312500X-0.625000X0.312500X-0.625000X0.312500X0.625000X-0.312500X0.625000X0*%
%ADD16RoundRect,0.250000X0.312500X0.625000X-0.312500X0.625000X-0.312500X-0.625000X0.312500X-0.625000X0*%
G04 APERTURE END LIST*
D10*
X100838000Y-78740000D03*
D11*
X103378000Y-78740000D03*
X105918000Y-78740000D03*
X94615000Y-76200000D03*
X92035000Y-76240000D03*
X89535000Y-76200000D03*
X94535000Y-78740000D03*
X92035000Y-78740000D03*
D10*
X89535000Y-78740000D03*
X154940000Y-67502000D03*
D11*
X152400000Y-67502000D03*
X154940000Y-64962000D03*
X152400000Y-64962000D03*
X154940000Y-62422000D03*
X152400000Y-62422000D03*
X154940000Y-59882000D03*
X152400000Y-59882000D03*
X154940000Y-57342000D03*
X152400000Y-57342000D03*
D12*
X78232000Y-74676000D03*
X83232000Y-74676000D03*
D10*
X133858000Y-78740000D03*
D11*
X136398000Y-78740000D03*
D13*
X64770000Y-38735000D03*
X153035000Y-38735000D03*
D14*
X136652000Y-65024000D03*
D12*
X136652000Y-67524000D03*
D14*
X78210000Y-38658000D03*
D12*
X78210000Y-41158000D03*
D10*
X104394000Y-44704000D03*
D11*
X106934000Y-44704000D03*
X109474000Y-44704000D03*
D12*
X72430000Y-78486000D03*
X77430000Y-78486000D03*
D10*
X116855000Y-36830000D03*
D11*
X119395000Y-36830000D03*
X121935000Y-36830000D03*
D14*
X130048000Y-57429621D03*
D12*
X130048000Y-59929621D03*
D10*
X97155000Y-36830000D03*
D11*
X99695000Y-36830000D03*
X102235000Y-36830000D03*
D10*
X119888000Y-78740000D03*
D11*
X122428000Y-78740000D03*
D13*
X64770000Y-76835000D03*
D14*
X123952000Y-45974000D03*
D12*
X123952000Y-49474000D03*
D14*
X91196500Y-38912000D03*
D12*
X91196500Y-41412000D03*
D14*
X69723000Y-50611000D03*
D12*
X69723000Y-53111000D03*
D14*
X88265000Y-48960000D03*
D12*
X88265000Y-51460000D03*
D14*
X114300000Y-74763621D03*
D12*
X114300000Y-77263621D03*
D14*
X129518000Y-37767349D03*
D12*
X129518000Y-41267349D03*
D13*
X153035000Y-76835000D03*
D14*
X128270000Y-67564000D03*
D12*
X128270000Y-70064000D03*
D15*
X69465000Y-38862000D03*
X72390000Y-38862000D03*
X70419500Y-74676000D03*
X73344500Y-74676000D03*
D16*
X147766500Y-38608000D03*
X144841500Y-38608000D03*
X147766500Y-76200000D03*
X144841500Y-76200000D03*
M02*
