G04 #@! TF.GenerationSoftware,KiCad,Pcbnew,8.0.4*
G04 #@! TF.CreationDate,2024-08-16T09:38:16+02:00*
G04 #@! TF.ProjectId,Purrtico_TLA,50757272-7469-4636-9f5f-544c412e6b69,01*
G04 #@! TF.SameCoordinates,Original*
G04 #@! TF.FileFunction,Soldermask,Top*
G04 #@! TF.FilePolarity,Negative*
%FSLAX46Y46*%
G04 Gerber Fmt 4.6, Leading zero omitted, Abs format (unit mm)*
G04 Created by KiCad (PCBNEW 8.0.4) date 2024-08-16 09:38:16*
%MOMM*%
%LPD*%
G01*
G04 APERTURE LIST*
G04 Aperture macros list*
%AMRoundRect*
0 Rectangle with rounded corners*
0 $1 Rounding radius*
0 $2 $3 $4 $5 $6 $7 $8 $9 X,Y pos of 4 corners*
0 Add a 4 corners polygon primitive as box body*
4,1,4,$2,$3,$4,$5,$6,$7,$8,$9,$2,$3,0*
0 Add four circle primitives for the rounded corners*
1,1,$1+$1,$2,$3*
1,1,$1+$1,$4,$5*
1,1,$1+$1,$6,$7*
1,1,$1+$1,$8,$9*
0 Add four rect primitives between the rounded corners*
20,1,$1+$1,$2,$3,$4,$5,0*
20,1,$1+$1,$4,$5,$6,$7,0*
20,1,$1+$1,$6,$7,$8,$9,0*
20,1,$1+$1,$8,$9,$2,$3,0*%
G04 Aperture macros list end*
%ADD10R,1.700000X1.700000*%
%ADD11O,1.700000X1.700000*%
%ADD12RoundRect,0.250000X-0.650000X0.325000X-0.650000X-0.325000X0.650000X-0.325000X0.650000X0.325000X0*%
%ADD13RoundRect,0.250000X0.312500X0.625000X-0.312500X0.625000X-0.312500X-0.625000X0.312500X-0.625000X0*%
%ADD14RoundRect,0.250000X-0.312500X-0.625000X0.312500X-0.625000X0.312500X0.625000X-0.312500X0.625000X0*%
%ADD15C,1.600000*%
%ADD16C,5.600000*%
%ADD17R,1.600000X1.600000*%
%ADD18RoundRect,0.150000X-0.150000X0.825000X-0.150000X-0.825000X0.150000X-0.825000X0.150000X0.825000X0*%
%ADD19RoundRect,0.250000X0.650000X-0.325000X0.650000X0.325000X-0.650000X0.325000X-0.650000X-0.325000X0*%
G04 APERTURE END LIST*
D10*
X100838000Y-78740000D03*
D11*
X103378000Y-78740000D03*
X105918000Y-78740000D03*
D12*
X117188500Y-56945000D03*
X117188500Y-59895000D03*
D13*
X91124500Y-56834000D03*
X88199500Y-56834000D03*
D14*
X114075000Y-66359000D03*
X117000000Y-66359000D03*
D13*
X115222000Y-68772000D03*
X112297000Y-68772000D03*
D14*
X70133000Y-59374000D03*
X73058000Y-59374000D03*
D11*
X94615000Y-76200000D03*
X92035000Y-76240000D03*
X89535000Y-76200000D03*
X94535000Y-78740000D03*
X92035000Y-78740000D03*
D10*
X89535000Y-78740000D03*
X154940000Y-67502000D03*
D11*
X152400000Y-67502000D03*
X154940000Y-64962000D03*
X152400000Y-64962000D03*
X154940000Y-62422000D03*
X152400000Y-62422000D03*
X154940000Y-59882000D03*
X152400000Y-59882000D03*
X154940000Y-57342000D03*
X152400000Y-57342000D03*
D15*
X78232000Y-74676000D03*
X83232000Y-74676000D03*
D12*
X106012500Y-67551000D03*
X106012500Y-70501000D03*
D13*
X78170500Y-57215000D03*
X75245500Y-57215000D03*
D10*
X133858000Y-78740000D03*
D11*
X136398000Y-78740000D03*
D13*
X101887000Y-67756000D03*
X98962000Y-67756000D03*
D12*
X83312000Y-77265000D03*
X83312000Y-80215000D03*
D16*
X64770000Y-38735000D03*
D12*
X106647500Y-54851000D03*
X106647500Y-57801000D03*
D14*
X110591000Y-36830000D03*
X113516000Y-36830000D03*
D16*
X153035000Y-38735000D03*
D14*
X74875000Y-46532000D03*
X77800000Y-46532000D03*
D13*
X104808000Y-49722000D03*
X101883000Y-49722000D03*
D17*
X136652000Y-65024000D03*
D15*
X136652000Y-67524000D03*
D17*
X78210000Y-38658000D03*
D15*
X78210000Y-41158000D03*
D13*
X108396500Y-52262000D03*
X105471500Y-52262000D03*
X100776500Y-75438000D03*
X97851500Y-75438000D03*
D10*
X104394000Y-44704000D03*
D11*
X106934000Y-44704000D03*
X109474000Y-44704000D03*
D13*
X128208500Y-75692000D03*
X125283500Y-75692000D03*
D12*
X80710500Y-67297000D03*
X80710500Y-70247000D03*
D14*
X84643500Y-68214000D03*
X87568500Y-68214000D03*
X110773000Y-52008000D03*
X113698000Y-52008000D03*
X103363500Y-73294000D03*
X106288500Y-73294000D03*
D12*
X80710500Y-54597000D03*
X80710500Y-57547000D03*
D15*
X72430000Y-78486000D03*
X77430000Y-78486000D03*
D12*
X97122500Y-54343000D03*
X97122500Y-57293000D03*
D10*
X116855000Y-36830000D03*
D11*
X119395000Y-36830000D03*
X121935000Y-36830000D03*
D17*
X130048000Y-57429621D03*
D15*
X130048000Y-59929621D03*
D14*
X74991500Y-52897000D03*
X77916500Y-52897000D03*
X74610500Y-67502000D03*
X77535500Y-67502000D03*
D10*
X97155000Y-36830000D03*
D11*
X99695000Y-36830000D03*
X102235000Y-36830000D03*
D14*
X99724000Y-54803000D03*
X102649000Y-54803000D03*
D13*
X94680500Y-70612000D03*
X91755500Y-70612000D03*
D18*
X109822500Y-60201000D03*
X108552500Y-60201000D03*
X107282500Y-60201000D03*
X106012500Y-60201000D03*
X104742500Y-60201000D03*
X103472500Y-60201000D03*
X102202500Y-60201000D03*
X102202500Y-65151000D03*
X103472500Y-65151000D03*
X104742500Y-65151000D03*
X106012500Y-65151000D03*
X107282500Y-65151000D03*
X108552500Y-65151000D03*
X109822500Y-65151000D03*
D13*
X99728000Y-47817000D03*
X96803000Y-47817000D03*
D10*
X119888000Y-78740000D03*
D11*
X122428000Y-78740000D03*
D16*
X64770000Y-76835000D03*
D17*
X123952000Y-45974000D03*
D15*
X123952000Y-49474000D03*
D13*
X114714000Y-59247000D03*
X111789000Y-59247000D03*
X89600500Y-59882000D03*
X86675500Y-59882000D03*
D18*
X84520500Y-60009000D03*
X83250500Y-60009000D03*
X81980500Y-60009000D03*
X80710500Y-60009000D03*
X79440500Y-60009000D03*
X78170500Y-60009000D03*
X76900500Y-60009000D03*
X76900500Y-64959000D03*
X78170500Y-64959000D03*
X79440500Y-64959000D03*
X80710500Y-64959000D03*
X81980500Y-64959000D03*
X83250500Y-64959000D03*
X84520500Y-64959000D03*
D13*
X123382500Y-56896000D03*
X120457500Y-56896000D03*
X120175000Y-52516000D03*
X117250000Y-52516000D03*
D12*
X81280000Y-45261000D03*
X81280000Y-48211000D03*
X72263000Y-66281000D03*
X72263000Y-69231000D03*
D13*
X113759500Y-55056000D03*
X110834500Y-55056000D03*
X86425500Y-56834000D03*
X83500500Y-56834000D03*
D14*
X84643500Y-70612000D03*
X87568500Y-70612000D03*
D17*
X91196500Y-38912000D03*
D15*
X91196500Y-41412000D03*
D17*
X69723000Y-50611000D03*
D15*
X69723000Y-53111000D03*
D17*
X88265000Y-48960000D03*
D15*
X88265000Y-51460000D03*
D13*
X103345500Y-57342000D03*
X100420500Y-57342000D03*
X89209000Y-64770000D03*
X86284000Y-64770000D03*
X93410500Y-45212000D03*
X90485500Y-45212000D03*
D14*
X100315500Y-70754000D03*
X103240500Y-70754000D03*
D17*
X114300000Y-74763621D03*
D15*
X114300000Y-77263621D03*
D17*
X129518000Y-37767349D03*
D15*
X129518000Y-41267349D03*
D16*
X153035000Y-76835000D03*
D14*
X112583500Y-45466000D03*
X115508500Y-45466000D03*
X95428000Y-51627000D03*
X98353000Y-51627000D03*
X110337000Y-40132000D03*
X113262000Y-40132000D03*
D13*
X73852500Y-71628000D03*
X70927500Y-71628000D03*
D14*
X84135500Y-45212000D03*
X87060500Y-45212000D03*
D17*
X128270000Y-67564000D03*
D15*
X128270000Y-70064000D03*
D19*
X109982000Y-71833000D03*
X109982000Y-68883000D03*
M02*
