%TF.GenerationSoftware,KiCad,Pcbnew,8.0.4*%
%TF.CreationDate,2024-08-16T09:26:58+02:00*%
%TF.ProjectId,Purrtico_TLA,50757272-7469-4636-9f5f-544c412e6b69,01*%
%TF.SameCoordinates,Original*%
%TF.FileFunction,Drillmap*%
%TF.FilePolarity,Positive*%
%FSLAX45Y45*%
G04 Gerber Fmt 4.5, Leading zero omitted, Abs format (unit mm)*
G04 Created by KiCad (PCBNEW 8.0.4) date 2024-08-16 09:26:58*
%MOMM*%
%LPD*%
G01*
G04 APERTURE LIST*
%ADD10C,0.100000*%
%ADD11C,0.200000*%
G04 APERTURE END LIST*
D10*
X5875000Y-3255000D02*
X15875000Y-3255000D01*
X15875000Y-8255000D01*
X5875000Y-8255000D01*
X5875000Y-3255000D01*
D11*
X6130777Y-8571484D02*
X6130777Y-8371484D01*
X6130777Y-8371484D02*
X6178396Y-8371484D01*
X6178396Y-8371484D02*
X6206967Y-8381008D01*
X6206967Y-8381008D02*
X6226015Y-8400055D01*
X6226015Y-8400055D02*
X6235539Y-8419103D01*
X6235539Y-8419103D02*
X6245062Y-8457198D01*
X6245062Y-8457198D02*
X6245062Y-8485770D01*
X6245062Y-8485770D02*
X6235539Y-8523865D01*
X6235539Y-8523865D02*
X6226015Y-8542912D01*
X6226015Y-8542912D02*
X6206967Y-8561960D01*
X6206967Y-8561960D02*
X6178396Y-8571484D01*
X6178396Y-8571484D02*
X6130777Y-8571484D01*
X6330777Y-8571484D02*
X6330777Y-8438150D01*
X6330777Y-8476246D02*
X6340301Y-8457198D01*
X6340301Y-8457198D02*
X6349824Y-8447674D01*
X6349824Y-8447674D02*
X6368872Y-8438150D01*
X6368872Y-8438150D02*
X6387920Y-8438150D01*
X6454586Y-8571484D02*
X6454586Y-8438150D01*
X6454586Y-8371484D02*
X6445062Y-8381008D01*
X6445062Y-8381008D02*
X6454586Y-8390531D01*
X6454586Y-8390531D02*
X6464110Y-8381008D01*
X6464110Y-8381008D02*
X6454586Y-8371484D01*
X6454586Y-8371484D02*
X6454586Y-8390531D01*
X6578396Y-8571484D02*
X6559348Y-8561960D01*
X6559348Y-8561960D02*
X6549824Y-8542912D01*
X6549824Y-8542912D02*
X6549824Y-8371484D01*
X6683158Y-8571484D02*
X6664110Y-8561960D01*
X6664110Y-8561960D02*
X6654586Y-8542912D01*
X6654586Y-8542912D02*
X6654586Y-8371484D01*
X6911729Y-8571484D02*
X6911729Y-8371484D01*
X6911729Y-8371484D02*
X6978396Y-8514341D01*
X6978396Y-8514341D02*
X7045062Y-8371484D01*
X7045062Y-8371484D02*
X7045062Y-8571484D01*
X7226015Y-8571484D02*
X7226015Y-8466722D01*
X7226015Y-8466722D02*
X7216491Y-8447674D01*
X7216491Y-8447674D02*
X7197443Y-8438150D01*
X7197443Y-8438150D02*
X7159348Y-8438150D01*
X7159348Y-8438150D02*
X7140301Y-8447674D01*
X7226015Y-8561960D02*
X7206967Y-8571484D01*
X7206967Y-8571484D02*
X7159348Y-8571484D01*
X7159348Y-8571484D02*
X7140301Y-8561960D01*
X7140301Y-8561960D02*
X7130777Y-8542912D01*
X7130777Y-8542912D02*
X7130777Y-8523865D01*
X7130777Y-8523865D02*
X7140301Y-8504817D01*
X7140301Y-8504817D02*
X7159348Y-8495293D01*
X7159348Y-8495293D02*
X7206967Y-8495293D01*
X7206967Y-8495293D02*
X7226015Y-8485770D01*
X7321253Y-8438150D02*
X7321253Y-8638150D01*
X7321253Y-8447674D02*
X7340301Y-8438150D01*
X7340301Y-8438150D02*
X7378396Y-8438150D01*
X7378396Y-8438150D02*
X7397443Y-8447674D01*
X7397443Y-8447674D02*
X7406967Y-8457198D01*
X7406967Y-8457198D02*
X7416491Y-8476246D01*
X7416491Y-8476246D02*
X7416491Y-8533389D01*
X7416491Y-8533389D02*
X7406967Y-8552436D01*
X7406967Y-8552436D02*
X7397443Y-8561960D01*
X7397443Y-8561960D02*
X7378396Y-8571484D01*
X7378396Y-8571484D02*
X7340301Y-8571484D01*
X7340301Y-8571484D02*
X7321253Y-8561960D01*
X7502205Y-8552436D02*
X7511729Y-8561960D01*
X7511729Y-8561960D02*
X7502205Y-8571484D01*
X7502205Y-8571484D02*
X7492682Y-8561960D01*
X7492682Y-8561960D02*
X7502205Y-8552436D01*
X7502205Y-8552436D02*
X7502205Y-8571484D01*
X7502205Y-8447674D02*
X7511729Y-8457198D01*
X7511729Y-8457198D02*
X7502205Y-8466722D01*
X7502205Y-8466722D02*
X7492682Y-8457198D01*
X7492682Y-8457198D02*
X7502205Y-8447674D01*
X7502205Y-8447674D02*
X7502205Y-8466722D01*
M02*
