G04 #@! TF.GenerationSoftware,KiCad,Pcbnew,8.0.4*
G04 #@! TF.CreationDate,2024-08-16T09:26:53+02:00*
G04 #@! TF.ProjectId,Purrtico_TLA,50757272-7469-4636-9f5f-544c412e6b69,01*
G04 #@! TF.SameCoordinates,Original*
G04 #@! TF.FileFunction,Copper,L2,Bot*
G04 #@! TF.FilePolarity,Positive*
%FSLAX46Y46*%
G04 Gerber Fmt 4.6, Leading zero omitted, Abs format (unit mm)*
G04 Created by KiCad (PCBNEW 8.0.4) date 2024-08-16 09:26:53*
%MOMM*%
%LPD*%
G01*
G04 APERTURE LIST*
G04 Aperture macros list*
%AMRoundRect*
0 Rectangle with rounded corners*
0 $1 Rounding radius*
0 $2 $3 $4 $5 $6 $7 $8 $9 X,Y pos of 4 corners*
0 Add a 4 corners polygon primitive as box body*
4,1,4,$2,$3,$4,$5,$6,$7,$8,$9,$2,$3,0*
0 Add four circle primitives for the rounded corners*
1,1,$1+$1,$2,$3*
1,1,$1+$1,$4,$5*
1,1,$1+$1,$6,$7*
1,1,$1+$1,$8,$9*
0 Add four rect primitives between the rounded corners*
20,1,$1+$1,$2,$3,$4,$5,0*
20,1,$1+$1,$4,$5,$6,$7,0*
20,1,$1+$1,$6,$7,$8,$9,0*
20,1,$1+$1,$8,$9,$2,$3,0*%
G04 Aperture macros list end*
G04 #@! TA.AperFunction,ComponentPad*
%ADD10R,1.700000X1.700000*%
G04 #@! TD*
G04 #@! TA.AperFunction,ComponentPad*
%ADD11O,1.700000X1.700000*%
G04 #@! TD*
G04 #@! TA.AperFunction,ComponentPad*
%ADD12C,1.600000*%
G04 #@! TD*
G04 #@! TA.AperFunction,ComponentPad*
%ADD13C,5.600000*%
G04 #@! TD*
G04 #@! TA.AperFunction,ComponentPad*
%ADD14R,1.600000X1.600000*%
G04 #@! TD*
G04 #@! TA.AperFunction,SMDPad,CuDef*
%ADD15RoundRect,0.250000X-0.312500X-0.625000X0.312500X-0.625000X0.312500X0.625000X-0.312500X0.625000X0*%
G04 #@! TD*
G04 #@! TA.AperFunction,SMDPad,CuDef*
%ADD16RoundRect,0.250000X0.312500X0.625000X-0.312500X0.625000X-0.312500X-0.625000X0.312500X-0.625000X0*%
G04 #@! TD*
G04 #@! TA.AperFunction,ViaPad*
%ADD17C,0.800000*%
G04 #@! TD*
G04 #@! TA.AperFunction,Conductor*
%ADD18C,0.254000*%
G04 #@! TD*
G04 #@! TA.AperFunction,Conductor*
%ADD19C,1.270000*%
G04 #@! TD*
G04 APERTURE END LIST*
D10*
X100838000Y-78740000D03*
D11*
X103378000Y-78740000D03*
X105918000Y-78740000D03*
D10*
X89956000Y-78446000D03*
D11*
X92456000Y-78446000D03*
X94956000Y-78446000D03*
X89956000Y-75906000D03*
X92456000Y-75946000D03*
X95036000Y-75906000D03*
D10*
X154940000Y-67502000D03*
D11*
X152400000Y-67502000D03*
X154940000Y-64962000D03*
X152400000Y-64962000D03*
X154940000Y-62422000D03*
X152400000Y-62422000D03*
X154940000Y-59882000D03*
X152400000Y-59882000D03*
X154940000Y-57342000D03*
X152400000Y-57342000D03*
D12*
X78232000Y-74676000D03*
X83232000Y-74676000D03*
D10*
X133858000Y-78740000D03*
D11*
X136398000Y-78740000D03*
D13*
X64770000Y-38735000D03*
X153035000Y-38735000D03*
D14*
X136652000Y-65024000D03*
D12*
X136652000Y-67524000D03*
D14*
X78210000Y-38658000D03*
D12*
X78210000Y-41158000D03*
D10*
X104394000Y-44704000D03*
D11*
X106934000Y-44704000D03*
X109474000Y-44704000D03*
D12*
X72430000Y-78486000D03*
X77430000Y-78486000D03*
D10*
X116855000Y-36830000D03*
D11*
X119395000Y-36830000D03*
X121935000Y-36830000D03*
D14*
X130048000Y-57429621D03*
D12*
X130048000Y-59929621D03*
D10*
X97155000Y-36830000D03*
D11*
X99695000Y-36830000D03*
X102235000Y-36830000D03*
D10*
X119888000Y-78740000D03*
D11*
X122428000Y-78740000D03*
D13*
X64770000Y-76835000D03*
D14*
X123952000Y-45974000D03*
D12*
X123952000Y-49474000D03*
D14*
X91196500Y-38912000D03*
D12*
X91196500Y-41412000D03*
D14*
X69723000Y-50611000D03*
D12*
X69723000Y-53111000D03*
D14*
X88265000Y-48960000D03*
D12*
X88265000Y-51460000D03*
D14*
X114300000Y-74763621D03*
D12*
X114300000Y-77263621D03*
D14*
X129518000Y-37767349D03*
D12*
X129518000Y-41267349D03*
D13*
X153035000Y-76835000D03*
D14*
X128270000Y-67564000D03*
D12*
X128270000Y-70064000D03*
D15*
X69465000Y-38862000D03*
X72390000Y-38862000D03*
X70419500Y-74676000D03*
X73344500Y-74676000D03*
D16*
X147766500Y-38608000D03*
X144841500Y-38608000D03*
X147766500Y-76200000D03*
X144841500Y-76200000D03*
D17*
X98900500Y-56530000D03*
X98922500Y-64658000D03*
X109220000Y-53848000D03*
X108944000Y-36830000D03*
X79230991Y-54464447D03*
X79258500Y-46532000D03*
X102362000Y-76200000D03*
X107409500Y-70296000D03*
X105123500Y-54802000D03*
X92268500Y-55310000D03*
X78916000Y-70550000D03*
X94488000Y-43434000D03*
X108944000Y-40640000D03*
X85090000Y-80010000D03*
X82472000Y-70550000D03*
X104615500Y-70296000D03*
X98806000Y-69596000D03*
X108093500Y-54851000D03*
X79248000Y-52832000D03*
X107917500Y-67121000D03*
X82169000Y-54548000D03*
X114808000Y-56642000D03*
X130048000Y-75692000D03*
X123157500Y-60898000D03*
X123306500Y-64658000D03*
X91567000Y-60644000D03*
X90939500Y-65285500D03*
X85598000Y-73914000D03*
X90805000Y-73660000D03*
X75692000Y-72390000D03*
X85344000Y-72390000D03*
X98552000Y-72136000D03*
D18*
X98922500Y-64658000D02*
X98900500Y-64636000D01*
X98900500Y-64636000D02*
X98900500Y-56199000D01*
X123284500Y-64200000D02*
X123284500Y-60644000D01*
X90939500Y-65285500D02*
X91567000Y-64658000D01*
X91567000Y-64658000D02*
X91567000Y-60644000D01*
X85598000Y-73914000D02*
X85852000Y-73660000D01*
X85852000Y-73660000D02*
X90805000Y-73660000D01*
D19*
X69465000Y-38862000D02*
X64897000Y-38862000D01*
X147766500Y-38608000D02*
X152908000Y-38608000D01*
X70419500Y-74676000D02*
X66929000Y-74676000D01*
X66929000Y-74676000D02*
X64770000Y-76835000D01*
X147766500Y-76200000D02*
X152400000Y-76200000D01*
D18*
X98552000Y-72136000D02*
X85598000Y-72136000D01*
X85598000Y-72136000D02*
X85344000Y-72390000D01*
X75692000Y-72390000D02*
X85344000Y-72390000D01*
G04 #@! TA.AperFunction,Conductor*
G36*
X105452075Y-78547007D02*
G01*
X105418000Y-78674174D01*
X105418000Y-78805826D01*
X105452075Y-78932993D01*
X105484988Y-78990000D01*
X103811012Y-78990000D01*
X103843925Y-78932993D01*
X103878000Y-78805826D01*
X103878000Y-78674174D01*
X103843925Y-78547007D01*
X103811012Y-78490000D01*
X105484988Y-78490000D01*
X105452075Y-78547007D01*
G37*
G04 #@! TD.AperFunction*
G04 #@! TA.AperFunction,Conductor*
G36*
X154474075Y-64769007D02*
G01*
X154440000Y-64896174D01*
X154440000Y-65027826D01*
X154474075Y-65154993D01*
X154506988Y-65212000D01*
X152833012Y-65212000D01*
X152865925Y-65154993D01*
X152900000Y-65027826D01*
X152900000Y-64896174D01*
X152865925Y-64769007D01*
X152833012Y-64712000D01*
X154506988Y-64712000D01*
X154474075Y-64769007D01*
G37*
G04 #@! TD.AperFunction*
G04 #@! TA.AperFunction,Conductor*
G36*
X152650000Y-64528988D02*
G01*
X152592993Y-64496075D01*
X152465826Y-64462000D01*
X152334174Y-64462000D01*
X152207007Y-64496075D01*
X152150000Y-64528988D01*
X152150000Y-62855012D01*
X152207007Y-62887925D01*
X152334174Y-62922000D01*
X152465826Y-62922000D01*
X152592993Y-62887925D01*
X152650000Y-62855012D01*
X152650000Y-64528988D01*
G37*
G04 #@! TD.AperFunction*
G04 #@! TA.AperFunction,Conductor*
G36*
X155190000Y-64528988D02*
G01*
X155132993Y-64496075D01*
X155005826Y-64462000D01*
X154874174Y-64462000D01*
X154747007Y-64496075D01*
X154690000Y-64528988D01*
X154690000Y-62855012D01*
X154747007Y-62887925D01*
X154874174Y-62922000D01*
X155005826Y-62922000D01*
X155132993Y-62887925D01*
X155190000Y-62855012D01*
X155190000Y-64528988D01*
G37*
G04 #@! TD.AperFunction*
G04 #@! TA.AperFunction,Conductor*
G36*
X154474075Y-62229007D02*
G01*
X154440000Y-62356174D01*
X154440000Y-62487826D01*
X154474075Y-62614993D01*
X154506988Y-62672000D01*
X152833012Y-62672000D01*
X152865925Y-62614993D01*
X152900000Y-62487826D01*
X152900000Y-62356174D01*
X152865925Y-62229007D01*
X152833012Y-62172000D01*
X154506988Y-62172000D01*
X154474075Y-62229007D01*
G37*
G04 #@! TD.AperFunction*
G04 #@! TA.AperFunction,Conductor*
G36*
X152650000Y-61988988D02*
G01*
X152592993Y-61956075D01*
X152465826Y-61922000D01*
X152334174Y-61922000D01*
X152207007Y-61956075D01*
X152150000Y-61988988D01*
X152150000Y-60315012D01*
X152207007Y-60347925D01*
X152334174Y-60382000D01*
X152465826Y-60382000D01*
X152592993Y-60347925D01*
X152650000Y-60315012D01*
X152650000Y-61988988D01*
G37*
G04 #@! TD.AperFunction*
G04 #@! TA.AperFunction,Conductor*
G36*
X155190000Y-61988988D02*
G01*
X155132993Y-61956075D01*
X155005826Y-61922000D01*
X154874174Y-61922000D01*
X154747007Y-61956075D01*
X154690000Y-61988988D01*
X154690000Y-60315012D01*
X154747007Y-60347925D01*
X154874174Y-60382000D01*
X155005826Y-60382000D01*
X155132993Y-60347925D01*
X155190000Y-60315012D01*
X155190000Y-61988988D01*
G37*
G04 #@! TD.AperFunction*
G04 #@! TA.AperFunction,Conductor*
G36*
X154474075Y-59689007D02*
G01*
X154440000Y-59816174D01*
X154440000Y-59947826D01*
X154474075Y-60074993D01*
X154506988Y-60132000D01*
X152833012Y-60132000D01*
X152865925Y-60074993D01*
X152900000Y-59947826D01*
X152900000Y-59816174D01*
X152865925Y-59689007D01*
X152833012Y-59632000D01*
X154506988Y-59632000D01*
X154474075Y-59689007D01*
G37*
G04 #@! TD.AperFunction*
G04 #@! TA.AperFunction,Conductor*
G36*
X157423039Y-34309685D02*
G01*
X157468794Y-34362489D01*
X157480000Y-34414000D01*
X157480000Y-81156000D01*
X157460315Y-81223039D01*
X157407511Y-81268794D01*
X157356000Y-81280000D01*
X60449000Y-81280000D01*
X60381961Y-81260315D01*
X60336206Y-81207511D01*
X60325000Y-81156000D01*
X60325000Y-76834996D01*
X61764415Y-76834996D01*
X61764415Y-76835003D01*
X61784738Y-77183927D01*
X61784739Y-77183938D01*
X61845428Y-77528127D01*
X61845430Y-77528134D01*
X61945674Y-77862972D01*
X62084107Y-78183895D01*
X62084113Y-78183908D01*
X62258870Y-78486597D01*
X62467584Y-78766949D01*
X62467589Y-78766955D01*
X62591463Y-78898253D01*
X62707442Y-79021183D01*
X62883903Y-79169251D01*
X62975186Y-79245847D01*
X62975194Y-79245853D01*
X63267203Y-79437911D01*
X63267207Y-79437913D01*
X63579549Y-79594777D01*
X63907989Y-79714319D01*
X64248086Y-79794923D01*
X64595241Y-79835500D01*
X64595248Y-79835500D01*
X64944752Y-79835500D01*
X64944759Y-79835500D01*
X65291914Y-79794923D01*
X65632011Y-79714319D01*
X65960451Y-79594777D01*
X66272793Y-79437913D01*
X66483306Y-79299456D01*
X66564805Y-79245853D01*
X66564805Y-79245852D01*
X66564811Y-79245849D01*
X66832558Y-79021183D01*
X67072412Y-78766953D01*
X67281130Y-78486596D01*
X67281474Y-78486000D01*
X71424659Y-78486000D01*
X71443975Y-78682129D01*
X71501188Y-78870733D01*
X71594086Y-79044532D01*
X71594090Y-79044539D01*
X71719116Y-79196883D01*
X71871460Y-79321909D01*
X71871467Y-79321913D01*
X72045266Y-79414811D01*
X72045269Y-79414811D01*
X72045273Y-79414814D01*
X72233868Y-79472024D01*
X72430000Y-79491341D01*
X72626132Y-79472024D01*
X72814727Y-79414814D01*
X72988538Y-79321910D01*
X73140883Y-79196883D01*
X73265910Y-79044538D01*
X73358814Y-78870727D01*
X73416024Y-78682132D01*
X73435341Y-78486000D01*
X76424659Y-78486000D01*
X76443975Y-78682129D01*
X76501188Y-78870733D01*
X76594086Y-79044532D01*
X76594090Y-79044539D01*
X76719116Y-79196883D01*
X76871460Y-79321909D01*
X76871467Y-79321913D01*
X77045266Y-79414811D01*
X77045269Y-79414811D01*
X77045273Y-79414814D01*
X77233868Y-79472024D01*
X77430000Y-79491341D01*
X77626132Y-79472024D01*
X77814727Y-79414814D01*
X77988538Y-79321910D01*
X78140883Y-79196883D01*
X78265910Y-79044538D01*
X78358814Y-78870727D01*
X78416024Y-78682132D01*
X78435341Y-78486000D01*
X78416024Y-78289868D01*
X78358814Y-78101273D01*
X78358811Y-78101269D01*
X78358811Y-78101266D01*
X78265913Y-77927467D01*
X78265909Y-77927460D01*
X78140883Y-77775116D01*
X77988539Y-77650090D01*
X77988532Y-77650086D01*
X77850390Y-77576247D01*
X88905500Y-77576247D01*
X88905500Y-79315752D01*
X88917131Y-79374229D01*
X88917132Y-79374230D01*
X88961447Y-79440552D01*
X89027769Y-79484867D01*
X89027770Y-79484868D01*
X89086247Y-79496499D01*
X89086250Y-79496500D01*
X89086252Y-79496500D01*
X90825750Y-79496500D01*
X90825751Y-79496499D01*
X90840568Y-79493552D01*
X90884229Y-79484868D01*
X90884229Y-79484867D01*
X90884231Y-79484867D01*
X90950552Y-79440552D01*
X90994867Y-79374231D01*
X90994867Y-79374229D01*
X90994868Y-79374229D01*
X91005274Y-79321910D01*
X91006500Y-79315748D01*
X91006500Y-78446000D01*
X91400417Y-78446000D01*
X91420699Y-78651932D01*
X91420700Y-78651934D01*
X91480768Y-78849954D01*
X91578315Y-79032450D01*
X91588236Y-79044539D01*
X91709589Y-79192410D01*
X91806209Y-79271702D01*
X91869550Y-79323685D01*
X92052046Y-79421232D01*
X92250066Y-79481300D01*
X92250065Y-79481300D01*
X92268529Y-79483118D01*
X92456000Y-79501583D01*
X92661934Y-79481300D01*
X92859954Y-79421232D01*
X93042450Y-79323685D01*
X93202410Y-79192410D01*
X93333685Y-79032450D01*
X93431232Y-78849954D01*
X93491300Y-78651934D01*
X93511583Y-78446000D01*
X93900417Y-78446000D01*
X93920699Y-78651932D01*
X93920700Y-78651934D01*
X93980768Y-78849954D01*
X94078315Y-79032450D01*
X94088236Y-79044539D01*
X94209589Y-79192410D01*
X94306209Y-79271702D01*
X94369550Y-79323685D01*
X94552046Y-79421232D01*
X94750066Y-79481300D01*
X94750065Y-79481300D01*
X94768529Y-79483118D01*
X94956000Y-79501583D01*
X95161934Y-79481300D01*
X95359954Y-79421232D01*
X95542450Y-79323685D01*
X95702410Y-79192410D01*
X95833685Y-79032450D01*
X95931232Y-78849954D01*
X95991300Y-78651934D01*
X96011583Y-78446000D01*
X95991300Y-78240066D01*
X95931232Y-78042046D01*
X95839403Y-77870247D01*
X99787500Y-77870247D01*
X99787500Y-79609752D01*
X99799131Y-79668229D01*
X99799132Y-79668230D01*
X99843447Y-79734552D01*
X99909769Y-79778867D01*
X99909770Y-79778868D01*
X99968247Y-79790499D01*
X99968250Y-79790500D01*
X99968252Y-79790500D01*
X101707750Y-79790500D01*
X101707751Y-79790499D01*
X101722568Y-79787552D01*
X101766229Y-79778868D01*
X101766229Y-79778867D01*
X101766231Y-79778867D01*
X101832552Y-79734552D01*
X101876867Y-79668231D01*
X101876867Y-79668229D01*
X101876868Y-79668229D01*
X101886922Y-79617682D01*
X101888500Y-79609748D01*
X101888500Y-79299456D01*
X101908185Y-79232417D01*
X101960989Y-79186662D01*
X102030147Y-79176718D01*
X102093703Y-79205743D01*
X102124882Y-79247051D01*
X102204400Y-79417578D01*
X102339894Y-79611082D01*
X102506917Y-79778105D01*
X102700421Y-79913600D01*
X102914507Y-80013429D01*
X102914516Y-80013433D01*
X103128000Y-80070634D01*
X103128000Y-79173012D01*
X103185007Y-79205925D01*
X103312174Y-79240000D01*
X103443826Y-79240000D01*
X103570993Y-79205925D01*
X103628000Y-79173012D01*
X103628000Y-80070633D01*
X103841483Y-80013433D01*
X103841492Y-80013429D01*
X104055578Y-79913600D01*
X104249082Y-79778105D01*
X104416105Y-79611082D01*
X104546425Y-79424968D01*
X104601002Y-79381344D01*
X104670501Y-79374151D01*
X104732855Y-79405673D01*
X104749575Y-79424968D01*
X104879894Y-79611082D01*
X105046917Y-79778105D01*
X105240421Y-79913600D01*
X105454507Y-80013429D01*
X105454516Y-80013433D01*
X105668000Y-80070634D01*
X105668000Y-79173012D01*
X105725007Y-79205925D01*
X105852174Y-79240000D01*
X105983826Y-79240000D01*
X106110993Y-79205925D01*
X106168000Y-79173012D01*
X106168000Y-80070633D01*
X106381483Y-80013433D01*
X106381492Y-80013429D01*
X106595578Y-79913600D01*
X106789082Y-79778105D01*
X106956105Y-79611082D01*
X107091600Y-79417578D01*
X107191429Y-79203492D01*
X107191432Y-79203486D01*
X107248636Y-78990000D01*
X106351012Y-78990000D01*
X106383925Y-78932993D01*
X106418000Y-78805826D01*
X106418000Y-78674174D01*
X106383925Y-78547007D01*
X106351012Y-78490000D01*
X107248636Y-78490000D01*
X107248635Y-78489999D01*
X107191432Y-78276513D01*
X107191429Y-78276507D01*
X107091600Y-78062422D01*
X107091599Y-78062420D01*
X106956113Y-77868926D01*
X106956108Y-77868920D01*
X106789082Y-77701894D01*
X106595578Y-77566399D01*
X106381492Y-77466570D01*
X106381486Y-77466567D01*
X106168000Y-77409364D01*
X106168000Y-78306988D01*
X106110993Y-78274075D01*
X105983826Y-78240000D01*
X105852174Y-78240000D01*
X105725007Y-78274075D01*
X105668000Y-78306988D01*
X105668000Y-77409364D01*
X105667999Y-77409364D01*
X105454513Y-77466567D01*
X105454507Y-77466570D01*
X105240422Y-77566399D01*
X105240420Y-77566400D01*
X105046926Y-77701886D01*
X105046920Y-77701891D01*
X104879891Y-77868920D01*
X104879890Y-77868922D01*
X104749575Y-78055031D01*
X104694998Y-78098655D01*
X104625499Y-78105848D01*
X104563145Y-78074326D01*
X104546425Y-78055031D01*
X104416109Y-77868922D01*
X104416108Y-77868920D01*
X104249082Y-77701894D01*
X104055578Y-77566399D01*
X103841492Y-77466570D01*
X103841486Y-77466567D01*
X103628000Y-77409364D01*
X103628000Y-78306988D01*
X103570993Y-78274075D01*
X103443826Y-78240000D01*
X103312174Y-78240000D01*
X103185007Y-78274075D01*
X103128000Y-78306988D01*
X103128000Y-77409364D01*
X103127999Y-77409364D01*
X102914513Y-77466567D01*
X102914507Y-77466570D01*
X102700422Y-77566399D01*
X102700420Y-77566400D01*
X102506926Y-77701886D01*
X102506920Y-77701891D01*
X102339891Y-77868920D01*
X102339886Y-77868926D01*
X102204400Y-78062420D01*
X102204399Y-78062422D01*
X102124882Y-78232948D01*
X102078710Y-78285387D01*
X102011516Y-78304539D01*
X101944635Y-78284323D01*
X101899300Y-78231158D01*
X101888500Y-78180543D01*
X101888500Y-77870249D01*
X101888499Y-77870247D01*
X101876868Y-77811770D01*
X101876867Y-77811769D01*
X101832552Y-77745447D01*
X101766230Y-77701132D01*
X101766229Y-77701131D01*
X101707752Y-77689500D01*
X101707748Y-77689500D01*
X99968252Y-77689500D01*
X99968247Y-77689500D01*
X99909770Y-77701131D01*
X99909769Y-77701132D01*
X99843447Y-77745447D01*
X99799132Y-77811769D01*
X99799131Y-77811770D01*
X99787500Y-77870247D01*
X95839403Y-77870247D01*
X95833685Y-77859550D01*
X95755900Y-77764768D01*
X95702410Y-77699589D01*
X95552121Y-77576252D01*
X95542450Y-77568315D01*
X95359954Y-77470768D01*
X95161934Y-77410700D01*
X95161932Y-77410699D01*
X95161934Y-77410699D01*
X94956000Y-77390417D01*
X94750067Y-77410699D01*
X94552043Y-77470769D01*
X94477762Y-77510474D01*
X94369550Y-77568315D01*
X94369548Y-77568316D01*
X94369547Y-77568317D01*
X94209589Y-77699589D01*
X94078317Y-77859547D01*
X94078315Y-77859550D01*
X94072595Y-77870252D01*
X93980769Y-78042043D01*
X93920699Y-78240067D01*
X93900417Y-78446000D01*
X93511583Y-78446000D01*
X93491300Y-78240066D01*
X93431232Y-78042046D01*
X93333685Y-77859550D01*
X93255900Y-77764768D01*
X93202410Y-77699589D01*
X93052121Y-77576252D01*
X93042450Y-77568315D01*
X92859954Y-77470768D01*
X92661934Y-77410700D01*
X92661932Y-77410699D01*
X92661934Y-77410699D01*
X92456000Y-77390417D01*
X92250067Y-77410699D01*
X92052043Y-77470769D01*
X91977762Y-77510474D01*
X91869550Y-77568315D01*
X91869548Y-77568316D01*
X91869547Y-77568317D01*
X91709589Y-77699589D01*
X91578317Y-77859547D01*
X91578315Y-77859550D01*
X91572595Y-77870252D01*
X91480769Y-78042043D01*
X91420699Y-78240067D01*
X91400417Y-78446000D01*
X91006500Y-78446000D01*
X91006500Y-77576252D01*
X91006500Y-77576249D01*
X91006499Y-77576247D01*
X90994868Y-77517770D01*
X90994867Y-77517769D01*
X90950552Y-77451447D01*
X90884230Y-77407132D01*
X90884229Y-77407131D01*
X90825752Y-77395500D01*
X90825748Y-77395500D01*
X89086252Y-77395500D01*
X89086247Y-77395500D01*
X89027770Y-77407131D01*
X89027769Y-77407132D01*
X88961447Y-77451447D01*
X88917132Y-77517769D01*
X88917131Y-77517770D01*
X88905500Y-77576247D01*
X77850390Y-77576247D01*
X77814733Y-77557188D01*
X77814727Y-77557186D01*
X77626132Y-77499976D01*
X77626129Y-77499975D01*
X77430000Y-77480659D01*
X77233870Y-77499975D01*
X77045266Y-77557188D01*
X76871467Y-77650086D01*
X76871460Y-77650090D01*
X76719116Y-77775116D01*
X76594090Y-77927460D01*
X76594086Y-77927467D01*
X76501188Y-78101266D01*
X76443975Y-78289870D01*
X76424659Y-78486000D01*
X73435341Y-78486000D01*
X73416024Y-78289868D01*
X73358814Y-78101273D01*
X73358811Y-78101269D01*
X73358811Y-78101266D01*
X73265913Y-77927467D01*
X73265909Y-77927460D01*
X73140883Y-77775116D01*
X72988539Y-77650090D01*
X72988532Y-77650086D01*
X72814733Y-77557188D01*
X72814727Y-77557186D01*
X72626132Y-77499976D01*
X72626129Y-77499975D01*
X72430000Y-77480659D01*
X72233870Y-77499975D01*
X72045266Y-77557188D01*
X71871467Y-77650086D01*
X71871460Y-77650090D01*
X71719116Y-77775116D01*
X71594090Y-77927460D01*
X71594086Y-77927467D01*
X71501188Y-78101266D01*
X71443975Y-78289870D01*
X71424659Y-78486000D01*
X67281474Y-78486000D01*
X67455889Y-78183904D01*
X67594326Y-77862971D01*
X67694569Y-77528136D01*
X67697684Y-77510474D01*
X67741210Y-77263621D01*
X113294659Y-77263621D01*
X113313975Y-77459750D01*
X113371188Y-77648354D01*
X113464086Y-77822153D01*
X113464090Y-77822160D01*
X113589116Y-77974504D01*
X113741460Y-78099530D01*
X113741467Y-78099534D01*
X113915266Y-78192432D01*
X113915269Y-78192432D01*
X113915273Y-78192435D01*
X114103868Y-78249645D01*
X114300000Y-78268962D01*
X114496132Y-78249645D01*
X114684727Y-78192435D01*
X114700688Y-78183904D01*
X114771632Y-78145983D01*
X114858538Y-78099531D01*
X115010883Y-77974504D01*
X115119500Y-77842155D01*
X118538000Y-77842155D01*
X118538000Y-78490000D01*
X119454988Y-78490000D01*
X119422075Y-78547007D01*
X119388000Y-78674174D01*
X119388000Y-78805826D01*
X119422075Y-78932993D01*
X119454988Y-78990000D01*
X118538000Y-78990000D01*
X118538000Y-79637844D01*
X118544401Y-79697372D01*
X118544403Y-79697379D01*
X118594645Y-79832086D01*
X118594649Y-79832093D01*
X118680809Y-79947187D01*
X118680812Y-79947190D01*
X118795906Y-80033350D01*
X118795913Y-80033354D01*
X118930620Y-80083596D01*
X118930627Y-80083598D01*
X118990155Y-80089999D01*
X118990172Y-80090000D01*
X119638000Y-80090000D01*
X119638000Y-79173012D01*
X119695007Y-79205925D01*
X119822174Y-79240000D01*
X119953826Y-79240000D01*
X120080993Y-79205925D01*
X120138000Y-79173012D01*
X120138000Y-80090000D01*
X120785828Y-80090000D01*
X120785844Y-80089999D01*
X120845372Y-80083598D01*
X120845379Y-80083596D01*
X120980086Y-80033354D01*
X120980093Y-80033350D01*
X121095187Y-79947190D01*
X121095190Y-79947187D01*
X121181350Y-79832093D01*
X121181354Y-79832086D01*
X121231596Y-79697379D01*
X121231598Y-79697372D01*
X121237999Y-79637844D01*
X121238000Y-79637827D01*
X121238000Y-79237186D01*
X121257685Y-79170147D01*
X121310489Y-79124392D01*
X121379647Y-79114448D01*
X121443203Y-79143473D01*
X121471356Y-79178729D01*
X121550315Y-79326450D01*
X121550317Y-79326452D01*
X121681589Y-79486410D01*
X121700078Y-79501583D01*
X121841550Y-79617685D01*
X122024046Y-79715232D01*
X122222066Y-79775300D01*
X122222065Y-79775300D01*
X122240529Y-79777118D01*
X122428000Y-79795583D01*
X122633934Y-79775300D01*
X122831954Y-79715232D01*
X123014450Y-79617685D01*
X123174410Y-79486410D01*
X123305685Y-79326450D01*
X123403232Y-79143954D01*
X123463300Y-78945934D01*
X123483583Y-78740000D01*
X123463300Y-78534066D01*
X123403232Y-78336046D01*
X123305685Y-78153550D01*
X123214177Y-78042046D01*
X123174410Y-77993589D01*
X123024121Y-77870252D01*
X123014450Y-77862315D01*
X122976734Y-77842155D01*
X132508000Y-77842155D01*
X132508000Y-78490000D01*
X133424988Y-78490000D01*
X133392075Y-78547007D01*
X133358000Y-78674174D01*
X133358000Y-78805826D01*
X133392075Y-78932993D01*
X133424988Y-78990000D01*
X132508000Y-78990000D01*
X132508000Y-79637844D01*
X132514401Y-79697372D01*
X132514403Y-79697379D01*
X132564645Y-79832086D01*
X132564649Y-79832093D01*
X132650809Y-79947187D01*
X132650812Y-79947190D01*
X132765906Y-80033350D01*
X132765913Y-80033354D01*
X132900620Y-80083596D01*
X132900627Y-80083598D01*
X132960155Y-80089999D01*
X132960172Y-80090000D01*
X133608000Y-80090000D01*
X133608000Y-79173012D01*
X133665007Y-79205925D01*
X133792174Y-79240000D01*
X133923826Y-79240000D01*
X134050993Y-79205925D01*
X134108000Y-79173012D01*
X134108000Y-80090000D01*
X134755828Y-80090000D01*
X134755844Y-80089999D01*
X134815372Y-80083598D01*
X134815379Y-80083596D01*
X134950086Y-80033354D01*
X134950093Y-80033350D01*
X135065187Y-79947190D01*
X135065190Y-79947187D01*
X135151350Y-79832093D01*
X135151354Y-79832086D01*
X135201596Y-79697379D01*
X135201598Y-79697372D01*
X135207999Y-79637844D01*
X135208000Y-79637827D01*
X135208000Y-79237186D01*
X135227685Y-79170147D01*
X135280489Y-79124392D01*
X135349647Y-79114448D01*
X135413203Y-79143473D01*
X135441356Y-79178729D01*
X135520315Y-79326450D01*
X135520317Y-79326452D01*
X135651589Y-79486410D01*
X135670078Y-79501583D01*
X135811550Y-79617685D01*
X135994046Y-79715232D01*
X136192066Y-79775300D01*
X136192065Y-79775300D01*
X136210529Y-79777118D01*
X136398000Y-79795583D01*
X136603934Y-79775300D01*
X136801954Y-79715232D01*
X136984450Y-79617685D01*
X137144410Y-79486410D01*
X137275685Y-79326450D01*
X137373232Y-79143954D01*
X137433300Y-78945934D01*
X137453583Y-78740000D01*
X137433300Y-78534066D01*
X137373232Y-78336046D01*
X137275685Y-78153550D01*
X137184177Y-78042046D01*
X137144410Y-77993589D01*
X136994121Y-77870252D01*
X136984450Y-77862315D01*
X136801954Y-77764768D01*
X136603934Y-77704700D01*
X136603932Y-77704699D01*
X136603934Y-77704699D01*
X136398000Y-77684417D01*
X136192067Y-77704699D01*
X135994043Y-77764769D01*
X135960634Y-77782627D01*
X135811550Y-77862315D01*
X135811548Y-77862316D01*
X135811547Y-77862317D01*
X135651589Y-77993589D01*
X135520317Y-78153547D01*
X135520315Y-78153550D01*
X135454593Y-78276507D01*
X135441358Y-78301267D01*
X135392395Y-78351111D01*
X135324257Y-78366571D01*
X135258578Y-78342739D01*
X135216209Y-78287181D01*
X135208000Y-78242813D01*
X135208000Y-77842172D01*
X135207999Y-77842155D01*
X135201598Y-77782627D01*
X135201596Y-77782620D01*
X135151354Y-77647913D01*
X135151350Y-77647906D01*
X135065190Y-77532812D01*
X135065187Y-77532809D01*
X134950093Y-77446649D01*
X134950086Y-77446645D01*
X134815379Y-77396403D01*
X134815372Y-77396401D01*
X134755844Y-77390000D01*
X134108000Y-77390000D01*
X134108000Y-78306988D01*
X134050993Y-78274075D01*
X133923826Y-78240000D01*
X133792174Y-78240000D01*
X133665007Y-78274075D01*
X133608000Y-78306988D01*
X133608000Y-77390000D01*
X132960155Y-77390000D01*
X132900627Y-77396401D01*
X132900620Y-77396403D01*
X132765913Y-77446645D01*
X132765906Y-77446649D01*
X132650812Y-77532809D01*
X132650809Y-77532812D01*
X132564649Y-77647906D01*
X132564645Y-77647913D01*
X132514403Y-77782620D01*
X132514401Y-77782627D01*
X132508000Y-77842155D01*
X122976734Y-77842155D01*
X122831954Y-77764768D01*
X122633934Y-77704700D01*
X122633932Y-77704699D01*
X122633934Y-77704699D01*
X122428000Y-77684417D01*
X122222067Y-77704699D01*
X122024043Y-77764769D01*
X121990634Y-77782627D01*
X121841550Y-77862315D01*
X121841548Y-77862316D01*
X121841547Y-77862317D01*
X121681589Y-77993589D01*
X121550317Y-78153547D01*
X121550315Y-78153550D01*
X121484593Y-78276507D01*
X121471358Y-78301267D01*
X121422395Y-78351111D01*
X121354257Y-78366571D01*
X121288578Y-78342739D01*
X121246209Y-78287181D01*
X121238000Y-78242813D01*
X121238000Y-77842172D01*
X121237999Y-77842155D01*
X121231598Y-77782627D01*
X121231596Y-77782620D01*
X121181354Y-77647913D01*
X121181350Y-77647906D01*
X121095190Y-77532812D01*
X121095187Y-77532809D01*
X120980093Y-77446649D01*
X120980086Y-77446645D01*
X120845379Y-77396403D01*
X120845372Y-77396401D01*
X120785844Y-77390000D01*
X120138000Y-77390000D01*
X120138000Y-78306988D01*
X120080993Y-78274075D01*
X119953826Y-78240000D01*
X119822174Y-78240000D01*
X119695007Y-78274075D01*
X119638000Y-78306988D01*
X119638000Y-77390000D01*
X118990155Y-77390000D01*
X118930627Y-77396401D01*
X118930620Y-77396403D01*
X118795913Y-77446645D01*
X118795906Y-77446649D01*
X118680812Y-77532809D01*
X118680809Y-77532812D01*
X118594649Y-77647906D01*
X118594645Y-77647913D01*
X118544403Y-77782620D01*
X118544401Y-77782627D01*
X118538000Y-77842155D01*
X115119500Y-77842155D01*
X115135910Y-77822159D01*
X115228814Y-77648348D01*
X115286024Y-77459753D01*
X115305341Y-77263621D01*
X115286024Y-77067489D01*
X115228814Y-76878894D01*
X115228811Y-76878890D01*
X115228811Y-76878887D01*
X115226726Y-76874986D01*
X143779001Y-76874986D01*
X143789494Y-76977697D01*
X143844641Y-77144119D01*
X143844643Y-77144124D01*
X143936684Y-77293345D01*
X144060654Y-77417315D01*
X144209875Y-77509356D01*
X144209880Y-77509358D01*
X144376302Y-77564505D01*
X144376309Y-77564506D01*
X144479019Y-77574999D01*
X144591499Y-77574999D01*
X145091500Y-77574999D01*
X145203972Y-77574999D01*
X145203986Y-77574998D01*
X145306697Y-77564505D01*
X145473119Y-77509358D01*
X145473124Y-77509356D01*
X145622345Y-77417315D01*
X145746315Y-77293345D01*
X145838356Y-77144124D01*
X145838358Y-77144119D01*
X145893505Y-76977697D01*
X145893506Y-76977690D01*
X145903999Y-76874986D01*
X145904000Y-76874973D01*
X145904000Y-76450000D01*
X145091500Y-76450000D01*
X145091500Y-77574999D01*
X144591499Y-77574999D01*
X144591500Y-77574998D01*
X144591500Y-76450000D01*
X143779001Y-76450000D01*
X143779001Y-76874986D01*
X115226726Y-76874986D01*
X115135913Y-76705088D01*
X115135909Y-76705081D01*
X115010883Y-76552737D01*
X114858539Y-76427711D01*
X114858532Y-76427707D01*
X114684733Y-76334809D01*
X114684727Y-76334807D01*
X114496132Y-76277597D01*
X114496129Y-76277596D01*
X114300000Y-76258280D01*
X114103870Y-76277596D01*
X113915266Y-76334809D01*
X113741467Y-76427707D01*
X113741460Y-76427711D01*
X113589116Y-76552737D01*
X113464090Y-76705081D01*
X113464086Y-76705088D01*
X113371188Y-76878887D01*
X113313975Y-77067491D01*
X113294659Y-77263621D01*
X67741210Y-77263621D01*
X67755260Y-77183938D01*
X67755259Y-77183938D01*
X67755262Y-77183927D01*
X67775585Y-76835000D01*
X67755262Y-76486073D01*
X67755260Y-76486061D01*
X67694572Y-76141880D01*
X67694569Y-76141865D01*
X67694569Y-76141864D01*
X67681510Y-76098247D01*
X67680517Y-76030629D01*
X67794845Y-75603440D01*
X67831192Y-75543771D01*
X67894030Y-75513223D01*
X67914629Y-75511500D01*
X69639851Y-75511500D01*
X69706890Y-75531185D01*
X69739619Y-75561864D01*
X69784850Y-75623150D01*
X69894118Y-75703793D01*
X69936845Y-75718744D01*
X70022299Y-75748646D01*
X70052730Y-75751500D01*
X70052734Y-75751500D01*
X70786270Y-75751500D01*
X70816699Y-75748646D01*
X70816701Y-75748646D01*
X70880790Y-75726219D01*
X70944882Y-75703793D01*
X71054150Y-75623150D01*
X71134793Y-75513882D01*
X71179232Y-75386883D01*
X71179646Y-75385701D01*
X71179646Y-75385699D01*
X71182500Y-75355269D01*
X71182500Y-75350986D01*
X72282001Y-75350986D01*
X72292494Y-75453697D01*
X72347641Y-75620119D01*
X72347643Y-75620124D01*
X72439684Y-75769345D01*
X72563654Y-75893315D01*
X72712875Y-75985356D01*
X72712880Y-75985358D01*
X72879302Y-76040505D01*
X72879309Y-76040506D01*
X72982019Y-76050999D01*
X73094499Y-76050999D01*
X73594500Y-76050999D01*
X73706972Y-76050999D01*
X73706986Y-76050998D01*
X73809697Y-76040505D01*
X73976119Y-75985358D01*
X73976124Y-75985356D01*
X74104780Y-75906000D01*
X88900417Y-75906000D01*
X88920699Y-76111932D01*
X88950734Y-76210944D01*
X88980768Y-76309954D01*
X89078315Y-76492450D01*
X89078317Y-76492452D01*
X89209589Y-76652410D01*
X89306209Y-76731702D01*
X89369550Y-76783685D01*
X89552046Y-76881232D01*
X89750066Y-76941300D01*
X89750065Y-76941300D01*
X89768529Y-76943118D01*
X89956000Y-76961583D01*
X90161934Y-76941300D01*
X90359954Y-76881232D01*
X90542450Y-76783685D01*
X90702410Y-76652410D01*
X90833685Y-76492450D01*
X90931232Y-76309954D01*
X90991300Y-76111934D01*
X91007643Y-75946000D01*
X91400417Y-75946000D01*
X91420699Y-76151932D01*
X91420700Y-76151934D01*
X91480768Y-76349954D01*
X91578315Y-76532450D01*
X91578317Y-76532452D01*
X91709589Y-76692410D01*
X91806209Y-76771702D01*
X91869550Y-76823685D01*
X92052046Y-76921232D01*
X92250066Y-76981300D01*
X92250065Y-76981300D01*
X92268529Y-76983118D01*
X92456000Y-77001583D01*
X92661934Y-76981300D01*
X92859954Y-76921232D01*
X93042450Y-76823685D01*
X93202410Y-76692410D01*
X93333685Y-76532450D01*
X93431232Y-76349954D01*
X93491300Y-76151934D01*
X93511583Y-75946000D01*
X93507643Y-75906000D01*
X93980417Y-75906000D01*
X94000699Y-76111932D01*
X94030734Y-76210944D01*
X94060768Y-76309954D01*
X94158315Y-76492450D01*
X94158317Y-76492452D01*
X94289589Y-76652410D01*
X94386209Y-76731702D01*
X94449550Y-76783685D01*
X94632046Y-76881232D01*
X94830066Y-76941300D01*
X94830065Y-76941300D01*
X94848529Y-76943118D01*
X95036000Y-76961583D01*
X95241934Y-76941300D01*
X95439954Y-76881232D01*
X95622450Y-76783685D01*
X95782410Y-76652410D01*
X95913685Y-76492450D01*
X96011232Y-76309954D01*
X96069549Y-76117705D01*
X146931000Y-76117705D01*
X146931000Y-76282294D01*
X146959925Y-76427711D01*
X146963107Y-76443706D01*
X146983297Y-76492450D01*
X146994061Y-76518435D01*
X147003500Y-76565888D01*
X147003500Y-76879269D01*
X147006353Y-76909699D01*
X147006353Y-76909701D01*
X147051206Y-77037880D01*
X147051207Y-77037882D01*
X147131850Y-77147150D01*
X147241118Y-77227793D01*
X147283845Y-77242744D01*
X147369299Y-77272646D01*
X147399730Y-77275500D01*
X147399734Y-77275500D01*
X148133270Y-77275500D01*
X148163699Y-77272646D01*
X148163701Y-77272646D01*
X148227790Y-77250219D01*
X148291882Y-77227793D01*
X148401150Y-77147150D01*
X148446379Y-77085865D01*
X148502026Y-77043616D01*
X148546149Y-77035500D01*
X149217906Y-77035500D01*
X149277997Y-77051033D01*
X150060505Y-77484541D01*
X150109607Y-77534247D01*
X150119205Y-77557444D01*
X150210674Y-77862972D01*
X150349107Y-78183895D01*
X150349113Y-78183908D01*
X150523870Y-78486597D01*
X150732584Y-78766949D01*
X150732589Y-78766955D01*
X150856463Y-78898253D01*
X150972442Y-79021183D01*
X151148903Y-79169251D01*
X151240186Y-79245847D01*
X151240194Y-79245853D01*
X151532203Y-79437911D01*
X151532207Y-79437913D01*
X151844549Y-79594777D01*
X152172989Y-79714319D01*
X152513086Y-79794923D01*
X152860241Y-79835500D01*
X152860248Y-79835500D01*
X153209752Y-79835500D01*
X153209759Y-79835500D01*
X153556914Y-79794923D01*
X153897011Y-79714319D01*
X154225451Y-79594777D01*
X154537793Y-79437913D01*
X154748306Y-79299456D01*
X154829805Y-79245853D01*
X154829805Y-79245852D01*
X154829811Y-79245849D01*
X155097558Y-79021183D01*
X155337412Y-78766953D01*
X155546130Y-78486596D01*
X155720889Y-78183904D01*
X155859326Y-77862971D01*
X155959569Y-77528136D01*
X155962684Y-77510474D01*
X156020260Y-77183938D01*
X156020259Y-77183938D01*
X156020262Y-77183927D01*
X156040585Y-76835000D01*
X156020262Y-76486073D01*
X156020260Y-76486061D01*
X155959571Y-76141872D01*
X155959569Y-76141865D01*
X155959567Y-76141858D01*
X155859326Y-75807029D01*
X155720889Y-75486096D01*
X155571817Y-75227895D01*
X155546129Y-75183402D01*
X155337415Y-74903050D01*
X155337410Y-74903044D01*
X155200844Y-74758294D01*
X155097558Y-74648817D01*
X154919064Y-74499043D01*
X154829813Y-74424152D01*
X154829805Y-74424146D01*
X154537796Y-74232088D01*
X154225458Y-74075226D01*
X154225452Y-74075223D01*
X153897012Y-73955681D01*
X153897009Y-73955680D01*
X153556915Y-73875077D01*
X153513519Y-73870004D01*
X153209759Y-73834500D01*
X152860241Y-73834500D01*
X152556480Y-73870004D01*
X152513085Y-73875077D01*
X152513083Y-73875077D01*
X152172990Y-73955680D01*
X152172987Y-73955681D01*
X151844547Y-74075223D01*
X151844541Y-74075226D01*
X151532203Y-74232088D01*
X151240194Y-74424146D01*
X151240186Y-74424152D01*
X150972442Y-74648817D01*
X150972440Y-74648819D01*
X150732589Y-74903044D01*
X150732584Y-74903050D01*
X150527327Y-75178759D01*
X150471505Y-75220778D01*
X150442063Y-75227895D01*
X149298940Y-75359656D01*
X149298931Y-75359657D01*
X149298929Y-75359658D01*
X149298926Y-75359658D01*
X149293834Y-75360684D01*
X149293767Y-75360355D01*
X149264616Y-75364500D01*
X148546149Y-75364500D01*
X148479110Y-75344815D01*
X148446379Y-75314134D01*
X148401150Y-75252850D01*
X148291882Y-75172207D01*
X148291880Y-75172206D01*
X148163700Y-75127353D01*
X148133270Y-75124500D01*
X148133266Y-75124500D01*
X147399734Y-75124500D01*
X147399730Y-75124500D01*
X147369300Y-75127353D01*
X147369298Y-75127353D01*
X147241119Y-75172206D01*
X147241117Y-75172207D01*
X147131850Y-75252850D01*
X147051207Y-75362117D01*
X147051206Y-75362119D01*
X147006353Y-75490298D01*
X147006353Y-75490300D01*
X147003500Y-75520730D01*
X147003500Y-75834112D01*
X146994061Y-75881564D01*
X146963108Y-75956290D01*
X146963105Y-75956302D01*
X146931000Y-76117705D01*
X96069549Y-76117705D01*
X96071300Y-76111934D01*
X96091583Y-75906000D01*
X96071300Y-75700066D01*
X96011232Y-75502046D01*
X95913685Y-75319550D01*
X95832780Y-75220966D01*
X95782410Y-75159589D01*
X95622452Y-75028317D01*
X95622453Y-75028317D01*
X95622450Y-75028315D01*
X95439954Y-74930768D01*
X95241934Y-74870700D01*
X95241932Y-74870699D01*
X95241934Y-74870699D01*
X95036000Y-74850417D01*
X94830067Y-74870699D01*
X94632043Y-74930769D01*
X94557212Y-74970768D01*
X94449550Y-75028315D01*
X94449548Y-75028316D01*
X94449547Y-75028317D01*
X94289589Y-75159589D01*
X94158317Y-75319547D01*
X94158315Y-75319550D01*
X94136878Y-75359656D01*
X94060769Y-75502043D01*
X94000699Y-75700067D01*
X93980417Y-75906000D01*
X93507643Y-75906000D01*
X93491300Y-75740066D01*
X93431232Y-75542046D01*
X93333685Y-75359550D01*
X93231091Y-75234538D01*
X93202410Y-75199589D01*
X93042452Y-75068317D01*
X93042453Y-75068317D01*
X93042450Y-75068315D01*
X92859954Y-74970768D01*
X92661934Y-74910700D01*
X92661932Y-74910699D01*
X92661934Y-74910699D01*
X92456000Y-74890417D01*
X92250067Y-74910699D01*
X92052043Y-74970769D01*
X91944384Y-75028315D01*
X91869550Y-75068315D01*
X91869548Y-75068316D01*
X91869547Y-75068317D01*
X91709589Y-75199589D01*
X91581828Y-75355269D01*
X91578315Y-75359550D01*
X91564338Y-75385699D01*
X91480769Y-75542043D01*
X91420699Y-75740067D01*
X91400417Y-75946000D01*
X91007643Y-75946000D01*
X91011583Y-75906000D01*
X90991300Y-75700066D01*
X90931232Y-75502046D01*
X90833685Y-75319550D01*
X90752780Y-75220966D01*
X90702410Y-75159589D01*
X90542452Y-75028317D01*
X90542453Y-75028317D01*
X90542450Y-75028315D01*
X90359954Y-74930768D01*
X90161934Y-74870700D01*
X90161932Y-74870699D01*
X90161934Y-74870699D01*
X89956000Y-74850417D01*
X89750067Y-74870699D01*
X89552043Y-74930769D01*
X89477212Y-74970768D01*
X89369550Y-75028315D01*
X89369548Y-75028316D01*
X89369547Y-75028317D01*
X89209589Y-75159589D01*
X89078317Y-75319547D01*
X89078315Y-75319550D01*
X89056878Y-75359656D01*
X88980769Y-75502043D01*
X88920699Y-75700067D01*
X88900417Y-75906000D01*
X74104780Y-75906000D01*
X74125345Y-75893315D01*
X74249315Y-75769345D01*
X74341356Y-75620124D01*
X74341358Y-75620119D01*
X74396505Y-75453697D01*
X74396506Y-75453690D01*
X74406999Y-75350986D01*
X74407000Y-75350973D01*
X74407000Y-74926000D01*
X73594500Y-74926000D01*
X73594500Y-76050999D01*
X73094499Y-76050999D01*
X73094500Y-76050998D01*
X73094500Y-74926000D01*
X72282001Y-74926000D01*
X72282001Y-75350986D01*
X71182500Y-75350986D01*
X71182500Y-75041888D01*
X71191939Y-74994435D01*
X71222893Y-74919706D01*
X71255000Y-74758290D01*
X71255000Y-74676000D01*
X77226659Y-74676000D01*
X77245975Y-74872129D01*
X77245976Y-74872132D01*
X77293354Y-75028317D01*
X77303188Y-75060733D01*
X77396086Y-75234532D01*
X77396090Y-75234539D01*
X77521116Y-75386883D01*
X77673460Y-75511909D01*
X77673467Y-75511913D01*
X77847266Y-75604811D01*
X77847269Y-75604811D01*
X77847273Y-75604814D01*
X78035868Y-75662024D01*
X78232000Y-75681341D01*
X78428132Y-75662024D01*
X78616727Y-75604814D01*
X78790538Y-75511910D01*
X78942883Y-75386883D01*
X79067910Y-75234538D01*
X79126727Y-75124500D01*
X79160811Y-75060733D01*
X79160811Y-75060732D01*
X79160814Y-75060727D01*
X79218024Y-74872132D01*
X79237341Y-74676000D01*
X82226659Y-74676000D01*
X82245975Y-74872129D01*
X82245976Y-74872132D01*
X82293354Y-75028317D01*
X82303188Y-75060733D01*
X82396086Y-75234532D01*
X82396090Y-75234539D01*
X82521116Y-75386883D01*
X82673460Y-75511909D01*
X82673467Y-75511913D01*
X82847266Y-75604811D01*
X82847269Y-75604811D01*
X82847273Y-75604814D01*
X83035868Y-75662024D01*
X83232000Y-75681341D01*
X83428132Y-75662024D01*
X83616727Y-75604814D01*
X83790538Y-75511910D01*
X83942883Y-75386883D01*
X84067910Y-75234538D01*
X84126727Y-75124500D01*
X84160811Y-75060733D01*
X84160811Y-75060732D01*
X84160814Y-75060727D01*
X84218024Y-74872132D01*
X84237341Y-74676000D01*
X84218024Y-74479868D01*
X84160814Y-74291273D01*
X84160811Y-74291269D01*
X84160811Y-74291266D01*
X84067913Y-74117467D01*
X84067909Y-74117460D01*
X83942883Y-73965116D01*
X83880596Y-73913998D01*
X84992318Y-73913998D01*
X84992318Y-73914001D01*
X85012955Y-74070760D01*
X85012956Y-74070762D01*
X85043044Y-74143402D01*
X85073464Y-74216841D01*
X85169718Y-74342282D01*
X85295159Y-74438536D01*
X85441238Y-74499044D01*
X85519619Y-74509363D01*
X85597999Y-74519682D01*
X85598000Y-74519682D01*
X85598001Y-74519682D01*
X85650254Y-74512802D01*
X85754762Y-74499044D01*
X85900841Y-74438536D01*
X86026282Y-74342282D01*
X86122536Y-74216841D01*
X86183044Y-74070762D01*
X86183044Y-74070760D01*
X86185825Y-74064047D01*
X86229666Y-74009644D01*
X86295960Y-73987579D01*
X86300386Y-73987500D01*
X90238235Y-73987500D01*
X90305274Y-74007185D01*
X90336610Y-74036013D01*
X90376718Y-74088282D01*
X90502159Y-74184536D01*
X90648238Y-74245044D01*
X90726619Y-74255363D01*
X90804999Y-74265682D01*
X90805000Y-74265682D01*
X90805001Y-74265682D01*
X90857254Y-74258802D01*
X90961762Y-74245044D01*
X91107841Y-74184536D01*
X91233282Y-74088282D01*
X91329536Y-73962841D01*
X91337395Y-73943868D01*
X113299500Y-73943868D01*
X113299500Y-75583373D01*
X113311131Y-75641850D01*
X113311132Y-75641851D01*
X113355447Y-75708173D01*
X113421769Y-75752488D01*
X113421770Y-75752489D01*
X113480247Y-75764120D01*
X113480250Y-75764121D01*
X113480252Y-75764121D01*
X115119750Y-75764121D01*
X115119751Y-75764120D01*
X115134568Y-75761173D01*
X115178229Y-75752489D01*
X115178229Y-75752488D01*
X115178231Y-75752488D01*
X115244552Y-75708173D01*
X115288867Y-75641852D01*
X115288867Y-75641850D01*
X115288868Y-75641850D01*
X115300499Y-75583373D01*
X115300500Y-75583371D01*
X115300500Y-75525013D01*
X143779000Y-75525013D01*
X143779000Y-75950000D01*
X144591500Y-75950000D01*
X145091500Y-75950000D01*
X145903999Y-75950000D01*
X145903999Y-75525028D01*
X145903998Y-75525013D01*
X145893505Y-75422302D01*
X145838358Y-75255880D01*
X145838356Y-75255875D01*
X145746315Y-75106654D01*
X145622345Y-74982684D01*
X145473124Y-74890643D01*
X145473119Y-74890641D01*
X145306697Y-74835494D01*
X145306690Y-74835493D01*
X145203986Y-74825000D01*
X145091500Y-74825000D01*
X145091500Y-75950000D01*
X144591500Y-75950000D01*
X144591500Y-74825000D01*
X144479027Y-74825000D01*
X144479012Y-74825001D01*
X144376302Y-74835494D01*
X144209880Y-74890641D01*
X144209875Y-74890643D01*
X144060654Y-74982684D01*
X143936684Y-75106654D01*
X143844643Y-75255875D01*
X143844641Y-75255880D01*
X143789494Y-75422302D01*
X143789493Y-75422309D01*
X143779000Y-75525013D01*
X115300500Y-75525013D01*
X115300500Y-73943870D01*
X115300499Y-73943868D01*
X115288868Y-73885391D01*
X115288867Y-73885390D01*
X115244552Y-73819068D01*
X115178230Y-73774753D01*
X115178229Y-73774752D01*
X115119752Y-73763121D01*
X115119748Y-73763121D01*
X113480252Y-73763121D01*
X113480247Y-73763121D01*
X113421770Y-73774752D01*
X113421769Y-73774753D01*
X113355447Y-73819068D01*
X113311132Y-73885390D01*
X113311131Y-73885391D01*
X113299500Y-73943868D01*
X91337395Y-73943868D01*
X91390044Y-73816762D01*
X91410682Y-73660000D01*
X91409129Y-73648207D01*
X91390044Y-73503239D01*
X91390044Y-73503238D01*
X91329536Y-73357159D01*
X91233282Y-73231718D01*
X91107841Y-73135464D01*
X90961762Y-73074956D01*
X90961760Y-73074955D01*
X90805001Y-73054318D01*
X90804999Y-73054318D01*
X90648239Y-73074955D01*
X90648237Y-73074956D01*
X90502160Y-73135463D01*
X90502159Y-73135464D01*
X90376718Y-73231718D01*
X90376717Y-73231719D01*
X90376716Y-73231720D01*
X90336610Y-73283987D01*
X90280182Y-73325189D01*
X90238235Y-73332500D01*
X85808877Y-73332500D01*
X85805905Y-73332891D01*
X85757643Y-73329728D01*
X85754762Y-73328956D01*
X85598001Y-73308318D01*
X85597999Y-73308318D01*
X85441239Y-73328955D01*
X85441237Y-73328956D01*
X85295160Y-73389463D01*
X85169718Y-73485718D01*
X85073463Y-73611160D01*
X85012956Y-73757237D01*
X85012955Y-73757239D01*
X84992318Y-73913998D01*
X83880596Y-73913998D01*
X83790539Y-73840090D01*
X83790532Y-73840086D01*
X83616733Y-73747188D01*
X83616727Y-73747186D01*
X83428132Y-73689976D01*
X83428129Y-73689975D01*
X83232000Y-73670659D01*
X83035870Y-73689975D01*
X82847266Y-73747188D01*
X82673467Y-73840086D01*
X82673460Y-73840090D01*
X82521116Y-73965116D01*
X82396090Y-74117460D01*
X82396086Y-74117467D01*
X82303188Y-74291266D01*
X82245975Y-74479870D01*
X82226659Y-74676000D01*
X79237341Y-74676000D01*
X79218024Y-74479868D01*
X79160814Y-74291273D01*
X79160811Y-74291269D01*
X79160811Y-74291266D01*
X79067913Y-74117467D01*
X79067909Y-74117460D01*
X78942883Y-73965116D01*
X78790539Y-73840090D01*
X78790532Y-73840086D01*
X78616733Y-73747188D01*
X78616727Y-73747186D01*
X78428132Y-73689976D01*
X78428129Y-73689975D01*
X78232000Y-73670659D01*
X78035870Y-73689975D01*
X77847266Y-73747188D01*
X77673467Y-73840086D01*
X77673460Y-73840090D01*
X77521116Y-73965116D01*
X77396090Y-74117460D01*
X77396086Y-74117467D01*
X77303188Y-74291266D01*
X77245975Y-74479870D01*
X77226659Y-74676000D01*
X71255000Y-74676000D01*
X71255000Y-74593710D01*
X71222893Y-74432294D01*
X71191938Y-74357563D01*
X71182500Y-74310112D01*
X71182500Y-74001013D01*
X72282000Y-74001013D01*
X72282000Y-74426000D01*
X73094500Y-74426000D01*
X73594500Y-74426000D01*
X74406999Y-74426000D01*
X74406999Y-74001028D01*
X74406998Y-74001013D01*
X74396505Y-73898302D01*
X74341358Y-73731880D01*
X74341356Y-73731875D01*
X74249315Y-73582654D01*
X74125345Y-73458684D01*
X73976124Y-73366643D01*
X73976119Y-73366641D01*
X73809697Y-73311494D01*
X73809690Y-73311493D01*
X73706986Y-73301000D01*
X73594500Y-73301000D01*
X73594500Y-74426000D01*
X73094500Y-74426000D01*
X73094500Y-73301000D01*
X72982027Y-73301000D01*
X72982012Y-73301001D01*
X72879302Y-73311494D01*
X72712880Y-73366641D01*
X72712875Y-73366643D01*
X72563654Y-73458684D01*
X72439684Y-73582654D01*
X72347643Y-73731875D01*
X72347641Y-73731880D01*
X72292494Y-73898302D01*
X72292493Y-73898309D01*
X72282000Y-74001013D01*
X71182500Y-74001013D01*
X71182500Y-73996730D01*
X71179646Y-73966300D01*
X71179646Y-73966298D01*
X71135483Y-73840090D01*
X71134793Y-73838118D01*
X71054150Y-73728850D01*
X70944882Y-73648207D01*
X70944880Y-73648206D01*
X70816700Y-73603353D01*
X70786270Y-73600500D01*
X70786266Y-73600500D01*
X70052734Y-73600500D01*
X70052730Y-73600500D01*
X70022300Y-73603353D01*
X70022298Y-73603353D01*
X69894119Y-73648206D01*
X69894117Y-73648207D01*
X69784850Y-73728850D01*
X69750972Y-73774754D01*
X69739621Y-73790134D01*
X69683974Y-73832384D01*
X69639851Y-73840500D01*
X66846705Y-73840500D01*
X66685300Y-73872605D01*
X66685290Y-73872608D01*
X66533244Y-73935587D01*
X66489048Y-73965118D01*
X66396400Y-74027023D01*
X66396396Y-74027026D01*
X66281884Y-74141539D01*
X66220561Y-74175024D01*
X66150869Y-74170040D01*
X66138552Y-74164668D01*
X65960458Y-74075226D01*
X65960452Y-74075223D01*
X65632012Y-73955681D01*
X65632009Y-73955680D01*
X65291915Y-73875077D01*
X65248519Y-73870004D01*
X64944759Y-73834500D01*
X64595241Y-73834500D01*
X64291480Y-73870004D01*
X64248085Y-73875077D01*
X64248083Y-73875077D01*
X63907990Y-73955680D01*
X63907987Y-73955681D01*
X63579547Y-74075223D01*
X63579541Y-74075226D01*
X63267203Y-74232088D01*
X62975194Y-74424146D01*
X62975186Y-74424152D01*
X62707442Y-74648817D01*
X62707440Y-74648819D01*
X62467589Y-74903044D01*
X62467584Y-74903050D01*
X62258870Y-75183402D01*
X62084113Y-75486091D01*
X62084107Y-75486104D01*
X61945674Y-75807027D01*
X61845430Y-76141865D01*
X61845428Y-76141872D01*
X61784739Y-76486061D01*
X61784738Y-76486072D01*
X61764415Y-76834996D01*
X60325000Y-76834996D01*
X60325000Y-72389998D01*
X75086318Y-72389998D01*
X75086318Y-72390001D01*
X75106955Y-72546760D01*
X75106956Y-72546762D01*
X75167464Y-72692841D01*
X75263718Y-72818282D01*
X75389159Y-72914536D01*
X75535238Y-72975044D01*
X75613619Y-72985363D01*
X75691999Y-72995682D01*
X75692000Y-72995682D01*
X75692001Y-72995682D01*
X75744254Y-72988802D01*
X75848762Y-72975044D01*
X75994841Y-72914536D01*
X76120282Y-72818282D01*
X76160390Y-72766013D01*
X76216818Y-72724811D01*
X76258765Y-72717500D01*
X84777235Y-72717500D01*
X84844274Y-72737185D01*
X84875610Y-72766013D01*
X84915718Y-72818282D01*
X85041159Y-72914536D01*
X85187238Y-72975044D01*
X85265619Y-72985363D01*
X85343999Y-72995682D01*
X85344000Y-72995682D01*
X85344001Y-72995682D01*
X85396254Y-72988802D01*
X85500762Y-72975044D01*
X85646841Y-72914536D01*
X85772282Y-72818282D01*
X85868536Y-72692841D01*
X85929044Y-72546762D01*
X85929044Y-72546760D01*
X85931825Y-72540047D01*
X85975666Y-72485644D01*
X86041960Y-72463579D01*
X86046386Y-72463500D01*
X97985235Y-72463500D01*
X98052274Y-72483185D01*
X98083610Y-72512013D01*
X98123718Y-72564282D01*
X98249159Y-72660536D01*
X98395238Y-72721044D01*
X98473619Y-72731363D01*
X98551999Y-72741682D01*
X98552000Y-72741682D01*
X98552001Y-72741682D01*
X98604254Y-72734802D01*
X98708762Y-72721044D01*
X98854841Y-72660536D01*
X98980282Y-72564282D01*
X99076536Y-72438841D01*
X99137044Y-72292762D01*
X99157682Y-72136000D01*
X99137044Y-71979238D01*
X99076536Y-71833159D01*
X98980282Y-71707718D01*
X98854841Y-71611464D01*
X98708762Y-71550956D01*
X98708760Y-71550955D01*
X98552001Y-71530318D01*
X98551999Y-71530318D01*
X98395239Y-71550955D01*
X98395237Y-71550956D01*
X98249160Y-71611463D01*
X98249159Y-71611464D01*
X98123718Y-71707718D01*
X98123717Y-71707719D01*
X98123716Y-71707720D01*
X98083610Y-71759987D01*
X98027182Y-71801189D01*
X97985235Y-71808500D01*
X85554877Y-71808500D01*
X85551905Y-71808891D01*
X85503643Y-71805728D01*
X85500762Y-71804956D01*
X85344001Y-71784318D01*
X85343999Y-71784318D01*
X85187239Y-71804955D01*
X85187237Y-71804956D01*
X85041160Y-71865463D01*
X85041159Y-71865464D01*
X84915718Y-71961718D01*
X84915717Y-71961719D01*
X84915716Y-71961720D01*
X84875610Y-72013987D01*
X84819182Y-72055189D01*
X84777235Y-72062500D01*
X76258765Y-72062500D01*
X76191726Y-72042815D01*
X76160390Y-72013987D01*
X76133726Y-71979239D01*
X76120282Y-71961718D01*
X75994841Y-71865464D01*
X75916852Y-71833160D01*
X75848762Y-71804956D01*
X75848760Y-71804955D01*
X75692001Y-71784318D01*
X75691999Y-71784318D01*
X75535239Y-71804955D01*
X75535237Y-71804956D01*
X75389160Y-71865463D01*
X75263718Y-71961718D01*
X75167463Y-72087160D01*
X75106956Y-72233237D01*
X75106955Y-72233239D01*
X75086318Y-72389998D01*
X60325000Y-72389998D01*
X60325000Y-70064000D01*
X127264659Y-70064000D01*
X127283975Y-70260129D01*
X127341188Y-70448733D01*
X127434086Y-70622532D01*
X127434090Y-70622539D01*
X127559116Y-70774883D01*
X127711460Y-70899909D01*
X127711467Y-70899913D01*
X127885266Y-70992811D01*
X127885269Y-70992811D01*
X127885273Y-70992814D01*
X128073868Y-71050024D01*
X128270000Y-71069341D01*
X128466132Y-71050024D01*
X128654727Y-70992814D01*
X128828538Y-70899910D01*
X128980883Y-70774883D01*
X129105910Y-70622538D01*
X129198814Y-70448727D01*
X129256024Y-70260132D01*
X129275341Y-70064000D01*
X129256024Y-69867868D01*
X129198814Y-69679273D01*
X129198811Y-69679269D01*
X129198811Y-69679266D01*
X129105913Y-69505467D01*
X129105909Y-69505460D01*
X128980883Y-69353116D01*
X128828539Y-69228090D01*
X128828532Y-69228086D01*
X128654733Y-69135188D01*
X128654727Y-69135186D01*
X128466132Y-69077976D01*
X128466129Y-69077975D01*
X128270000Y-69058659D01*
X128073870Y-69077975D01*
X127885266Y-69135188D01*
X127711467Y-69228086D01*
X127711460Y-69228090D01*
X127559116Y-69353116D01*
X127434090Y-69505460D01*
X127434086Y-69505467D01*
X127341188Y-69679266D01*
X127283975Y-69867870D01*
X127264659Y-70064000D01*
X60325000Y-70064000D01*
X60325000Y-66744247D01*
X127269500Y-66744247D01*
X127269500Y-68383752D01*
X127281131Y-68442229D01*
X127281132Y-68442230D01*
X127325447Y-68508552D01*
X127391769Y-68552867D01*
X127391770Y-68552868D01*
X127450247Y-68564499D01*
X127450250Y-68564500D01*
X127450252Y-68564500D01*
X129089750Y-68564500D01*
X129089751Y-68564499D01*
X129104568Y-68561552D01*
X129148229Y-68552868D01*
X129148229Y-68552867D01*
X129148231Y-68552867D01*
X129214552Y-68508552D01*
X129258867Y-68442231D01*
X129258867Y-68442229D01*
X129258868Y-68442229D01*
X129270499Y-68383752D01*
X129270500Y-68383750D01*
X129270500Y-66744249D01*
X129270499Y-66744247D01*
X129258868Y-66685770D01*
X129258867Y-66685769D01*
X129214552Y-66619447D01*
X129148230Y-66575132D01*
X129148229Y-66575131D01*
X129089752Y-66563500D01*
X129089748Y-66563500D01*
X127450252Y-66563500D01*
X127450247Y-66563500D01*
X127391770Y-66575131D01*
X127391769Y-66575132D01*
X127325447Y-66619447D01*
X127281132Y-66685769D01*
X127281131Y-66685770D01*
X127269500Y-66744247D01*
X60325000Y-66744247D01*
X60325000Y-65285498D01*
X90333818Y-65285498D01*
X90333818Y-65285501D01*
X90354455Y-65442260D01*
X90354456Y-65442262D01*
X90414964Y-65588341D01*
X90511218Y-65713782D01*
X90636659Y-65810036D01*
X90782738Y-65870544D01*
X90792613Y-65871844D01*
X90939499Y-65891182D01*
X90939500Y-65891182D01*
X90939501Y-65891182D01*
X90991754Y-65884302D01*
X91096262Y-65870544D01*
X91242341Y-65810036D01*
X91367782Y-65713782D01*
X91464036Y-65588341D01*
X91524544Y-65442262D01*
X91545182Y-65285500D01*
X91543089Y-65269606D01*
X91536582Y-65220180D01*
X91547347Y-65151145D01*
X91571834Y-65116319D01*
X91829065Y-64859090D01*
X91872181Y-64784410D01*
X91894500Y-64701116D01*
X91894500Y-64614884D01*
X91894500Y-61210764D01*
X91914185Y-61143725D01*
X91943014Y-61112388D01*
X91995282Y-61072282D01*
X92091536Y-60946841D01*
X92152044Y-60800762D01*
X92172682Y-60644000D01*
X92152044Y-60487238D01*
X92091536Y-60341159D01*
X91995282Y-60215718D01*
X91869841Y-60119464D01*
X91723762Y-60058956D01*
X91723760Y-60058955D01*
X91567001Y-60038318D01*
X91566999Y-60038318D01*
X91410239Y-60058955D01*
X91410237Y-60058956D01*
X91264160Y-60119463D01*
X91138718Y-60215718D01*
X91042463Y-60341160D01*
X90981956Y-60487237D01*
X90981955Y-60487239D01*
X90961318Y-60643998D01*
X90961318Y-60644001D01*
X90981955Y-60800760D01*
X90981956Y-60800762D01*
X91031389Y-60920105D01*
X91042464Y-60946841D01*
X91134776Y-61067145D01*
X91138719Y-61072283D01*
X91190986Y-61112388D01*
X91232189Y-61168816D01*
X91239500Y-61210764D01*
X91239500Y-64470982D01*
X91219815Y-64538021D01*
X91203181Y-64558664D01*
X91108684Y-64653160D01*
X91047360Y-64686644D01*
X91004818Y-64688417D01*
X90939501Y-64679818D01*
X90939499Y-64679818D01*
X90782739Y-64700455D01*
X90782737Y-64700456D01*
X90636660Y-64760963D01*
X90511218Y-64857218D01*
X90414963Y-64982660D01*
X90354456Y-65128737D01*
X90354455Y-65128739D01*
X90333818Y-65285498D01*
X60325000Y-65285498D01*
X60325000Y-56529998D01*
X98294818Y-56529998D01*
X98294818Y-56530001D01*
X98315455Y-56686760D01*
X98315456Y-56686762D01*
X98375964Y-56832841D01*
X98472218Y-56958282D01*
X98472219Y-56958283D01*
X98524486Y-56998388D01*
X98565689Y-57054816D01*
X98573000Y-57096764D01*
X98573000Y-64108115D01*
X98553315Y-64175154D01*
X98524488Y-64206489D01*
X98494222Y-64229713D01*
X98397963Y-64355160D01*
X98337456Y-64501237D01*
X98337455Y-64501239D01*
X98316818Y-64657998D01*
X98316818Y-64658001D01*
X98337455Y-64814760D01*
X98337456Y-64814762D01*
X98397964Y-64960841D01*
X98494218Y-65086282D01*
X98619659Y-65182536D01*
X98765738Y-65243044D01*
X98844119Y-65253363D01*
X98922499Y-65263682D01*
X98922500Y-65263682D01*
X98922501Y-65263682D01*
X98974754Y-65256802D01*
X99079262Y-65243044D01*
X99225341Y-65182536D01*
X99350782Y-65086282D01*
X99447036Y-64960841D01*
X99507544Y-64814762D01*
X99528182Y-64658000D01*
X99507544Y-64501238D01*
X99447036Y-64355159D01*
X99350782Y-64229718D01*
X99276511Y-64172728D01*
X99235311Y-64116302D01*
X99228000Y-64074354D01*
X99228000Y-60897998D01*
X122551818Y-60897998D01*
X122551818Y-60898001D01*
X122572455Y-61054760D01*
X122572456Y-61054762D01*
X122632200Y-61198998D01*
X122632964Y-61200841D01*
X122729218Y-61326282D01*
X122854659Y-61422536D01*
X122854660Y-61422536D01*
X122854661Y-61422537D01*
X122880452Y-61433220D01*
X122934856Y-61477061D01*
X122956921Y-61543355D01*
X122957000Y-61547781D01*
X122957000Y-64108115D01*
X122937315Y-64175154D01*
X122908488Y-64206489D01*
X122878222Y-64229713D01*
X122781963Y-64355160D01*
X122721456Y-64501237D01*
X122721455Y-64501239D01*
X122700818Y-64657998D01*
X122700818Y-64658001D01*
X122721455Y-64814760D01*
X122721456Y-64814762D01*
X122781964Y-64960841D01*
X122878218Y-65086282D01*
X123003659Y-65182536D01*
X123149738Y-65243044D01*
X123228119Y-65253363D01*
X123306499Y-65263682D01*
X123306500Y-65263682D01*
X123306501Y-65263682D01*
X123358754Y-65256802D01*
X123463262Y-65243044D01*
X123609341Y-65182536D01*
X123734782Y-65086282D01*
X123831036Y-64960841D01*
X123891544Y-64814762D01*
X123912182Y-64658000D01*
X123891544Y-64501238D01*
X123831036Y-64355159D01*
X123734782Y-64229718D01*
X123664977Y-64176155D01*
X135352000Y-64176155D01*
X135352000Y-64774000D01*
X136336314Y-64774000D01*
X136331920Y-64778394D01*
X136279259Y-64869606D01*
X136252000Y-64971339D01*
X136252000Y-65076661D01*
X136279259Y-65178394D01*
X136331920Y-65269606D01*
X136336314Y-65274000D01*
X135352000Y-65274000D01*
X135352000Y-65871844D01*
X135358401Y-65931372D01*
X135358403Y-65931379D01*
X135408645Y-66066086D01*
X135408649Y-66066093D01*
X135494809Y-66181187D01*
X135494812Y-66181190D01*
X135609906Y-66267350D01*
X135609913Y-66267354D01*
X135744620Y-66317596D01*
X135744627Y-66317598D01*
X135804155Y-66323999D01*
X135804172Y-66324000D01*
X136325313Y-66324000D01*
X136392352Y-66343685D01*
X136438107Y-66396489D01*
X136448051Y-66465647D01*
X136419026Y-66529203D01*
X136361310Y-66566659D01*
X136281816Y-66590774D01*
X136267266Y-66595188D01*
X136093467Y-66688086D01*
X136093460Y-66688090D01*
X135941116Y-66813116D01*
X135816090Y-66965460D01*
X135816086Y-66965467D01*
X135723188Y-67139266D01*
X135665975Y-67327870D01*
X135646659Y-67524000D01*
X135665975Y-67720129D01*
X135665976Y-67720132D01*
X135722345Y-67905956D01*
X135723188Y-67908733D01*
X135816086Y-68082532D01*
X135816090Y-68082539D01*
X135941116Y-68234883D01*
X136093460Y-68359909D01*
X136093467Y-68359913D01*
X136267266Y-68452811D01*
X136267269Y-68452811D01*
X136267273Y-68452814D01*
X136455868Y-68510024D01*
X136652000Y-68529341D01*
X136848132Y-68510024D01*
X137036727Y-68452814D01*
X137056527Y-68442231D01*
X137165933Y-68383752D01*
X137210538Y-68359910D01*
X137362883Y-68234883D01*
X137487910Y-68082538D01*
X137580814Y-67908727D01*
X137638024Y-67720132D01*
X137657341Y-67524000D01*
X137638024Y-67327868D01*
X137580814Y-67139273D01*
X137580811Y-67139269D01*
X137580811Y-67139266D01*
X137487913Y-66965467D01*
X137487909Y-66965460D01*
X137362883Y-66813116D01*
X137210539Y-66688090D01*
X137210532Y-66688086D01*
X137036733Y-66595188D01*
X137036727Y-66595186D01*
X136942689Y-66566659D01*
X136884253Y-66528363D01*
X136855796Y-66464551D01*
X136866357Y-66395484D01*
X136912581Y-66343090D01*
X136978687Y-66324000D01*
X137499828Y-66324000D01*
X137499844Y-66323999D01*
X137559372Y-66317598D01*
X137559379Y-66317596D01*
X137694086Y-66267354D01*
X137694093Y-66267350D01*
X137809187Y-66181190D01*
X137809190Y-66181187D01*
X137895350Y-66066093D01*
X137895354Y-66066086D01*
X137945596Y-65931379D01*
X137945598Y-65931372D01*
X137951999Y-65871844D01*
X137952000Y-65871827D01*
X137952000Y-65274000D01*
X136967686Y-65274000D01*
X136972080Y-65269606D01*
X137024741Y-65178394D01*
X137052000Y-65076661D01*
X137052000Y-64971339D01*
X137024741Y-64869606D01*
X136972080Y-64778394D01*
X136967686Y-64774000D01*
X137952000Y-64774000D01*
X137952000Y-64176172D01*
X137951999Y-64176155D01*
X137945598Y-64116627D01*
X137945596Y-64116620D01*
X137895354Y-63981913D01*
X137895350Y-63981906D01*
X137809190Y-63866812D01*
X137809187Y-63866809D01*
X137694093Y-63780649D01*
X137694086Y-63780645D01*
X137559379Y-63730403D01*
X137559372Y-63730401D01*
X137499844Y-63724000D01*
X136902000Y-63724000D01*
X136902000Y-64708314D01*
X136897606Y-64703920D01*
X136806394Y-64651259D01*
X136704661Y-64624000D01*
X136599339Y-64624000D01*
X136497606Y-64651259D01*
X136406394Y-64703920D01*
X136402000Y-64708314D01*
X136402000Y-63724000D01*
X135804155Y-63724000D01*
X135744627Y-63730401D01*
X135744620Y-63730403D01*
X135609913Y-63780645D01*
X135609906Y-63780649D01*
X135494812Y-63866809D01*
X135494809Y-63866812D01*
X135408649Y-63981906D01*
X135408645Y-63981913D01*
X135358403Y-64116620D01*
X135358401Y-64116627D01*
X135352000Y-64176155D01*
X123664977Y-64176155D01*
X123660511Y-64172728D01*
X123619311Y-64116302D01*
X123612000Y-64074354D01*
X123612000Y-61334206D01*
X123631685Y-61267167D01*
X123637624Y-61258720D01*
X123651523Y-61240605D01*
X123682036Y-61200841D01*
X123742544Y-61054762D01*
X123763182Y-60898000D01*
X123742544Y-60741238D01*
X123682036Y-60595159D01*
X123585782Y-60469718D01*
X123565960Y-60454508D01*
X123538895Y-60433740D01*
X123526701Y-60423046D01*
X123485591Y-60381936D01*
X123485590Y-60381935D01*
X123410910Y-60338819D01*
X123410911Y-60338819D01*
X123370154Y-60327898D01*
X123327616Y-60316500D01*
X123327615Y-60316500D01*
X123320009Y-60314462D01*
X123319519Y-60314364D01*
X123314265Y-60312956D01*
X123157501Y-60292318D01*
X123157499Y-60292318D01*
X123000739Y-60312955D01*
X123000737Y-60312956D01*
X122854660Y-60373463D01*
X122729218Y-60469718D01*
X122632963Y-60595160D01*
X122572456Y-60741237D01*
X122572455Y-60741239D01*
X122551818Y-60897998D01*
X99228000Y-60897998D01*
X99228000Y-59929618D01*
X128743034Y-59929618D01*
X128743034Y-59929623D01*
X128762858Y-60156220D01*
X128762860Y-60156231D01*
X128821730Y-60375938D01*
X128821735Y-60375952D01*
X128917863Y-60582099D01*
X128968974Y-60655093D01*
X129648000Y-59976067D01*
X129648000Y-59982282D01*
X129675259Y-60084015D01*
X129727920Y-60175227D01*
X129802394Y-60249701D01*
X129893606Y-60302362D01*
X129995339Y-60329621D01*
X130001553Y-60329621D01*
X129322526Y-61008646D01*
X129395513Y-61059753D01*
X129395521Y-61059757D01*
X129601668Y-61155885D01*
X129601682Y-61155890D01*
X129821389Y-61214760D01*
X129821400Y-61214762D01*
X130047998Y-61234587D01*
X130048002Y-61234587D01*
X130274599Y-61214762D01*
X130274610Y-61214760D01*
X130494317Y-61155890D01*
X130494331Y-61155885D01*
X130700478Y-61059757D01*
X130773471Y-61008645D01*
X130094447Y-60329621D01*
X130100661Y-60329621D01*
X130202394Y-60302362D01*
X130293606Y-60249701D01*
X130368080Y-60175227D01*
X130420741Y-60084015D01*
X130448000Y-59982282D01*
X130448000Y-59976068D01*
X131127024Y-60655092D01*
X131178136Y-60582099D01*
X131274264Y-60375952D01*
X131274269Y-60375938D01*
X131333139Y-60156231D01*
X131333141Y-60156220D01*
X131352966Y-59929623D01*
X131352966Y-59929618D01*
X131333141Y-59703021D01*
X131333139Y-59703010D01*
X131314112Y-59631999D01*
X151069364Y-59631999D01*
X151069364Y-59632000D01*
X151966988Y-59632000D01*
X151934075Y-59689007D01*
X151900000Y-59816174D01*
X151900000Y-59947826D01*
X151934075Y-60074993D01*
X151966988Y-60132000D01*
X151069364Y-60132000D01*
X151126567Y-60345486D01*
X151126570Y-60345492D01*
X151226399Y-60559578D01*
X151361894Y-60753082D01*
X151528917Y-60920105D01*
X151715031Y-61050425D01*
X151758656Y-61105003D01*
X151765848Y-61174501D01*
X151734326Y-61236856D01*
X151715031Y-61253575D01*
X151528922Y-61383890D01*
X151528920Y-61383891D01*
X151361891Y-61550920D01*
X151361886Y-61550926D01*
X151226400Y-61744420D01*
X151226399Y-61744422D01*
X151126570Y-61958507D01*
X151126567Y-61958513D01*
X151069364Y-62171999D01*
X151069364Y-62172000D01*
X151966988Y-62172000D01*
X151934075Y-62229007D01*
X151900000Y-62356174D01*
X151900000Y-62487826D01*
X151934075Y-62614993D01*
X151966988Y-62672000D01*
X151069364Y-62672000D01*
X151126567Y-62885486D01*
X151126570Y-62885492D01*
X151226399Y-63099578D01*
X151361894Y-63293082D01*
X151528917Y-63460105D01*
X151715031Y-63590425D01*
X151758656Y-63645003D01*
X151765848Y-63714501D01*
X151734326Y-63776856D01*
X151715031Y-63793575D01*
X151528922Y-63923890D01*
X151528920Y-63923891D01*
X151361891Y-64090920D01*
X151361886Y-64090926D01*
X151226400Y-64284420D01*
X151226399Y-64284422D01*
X151126570Y-64498507D01*
X151126567Y-64498513D01*
X151069364Y-64711999D01*
X151069364Y-64712000D01*
X151966988Y-64712000D01*
X151934075Y-64769007D01*
X151900000Y-64896174D01*
X151900000Y-65027826D01*
X151934075Y-65154993D01*
X151966988Y-65212000D01*
X151069364Y-65212000D01*
X151126567Y-65425486D01*
X151126570Y-65425492D01*
X151226399Y-65639578D01*
X151361894Y-65833082D01*
X151528917Y-66000105D01*
X151722421Y-66135600D01*
X151936507Y-66235429D01*
X151936516Y-66235433D01*
X152058649Y-66268158D01*
X152118310Y-66304523D01*
X152148839Y-66367369D01*
X152140545Y-66436745D01*
X152096059Y-66490623D01*
X152062552Y-66506593D01*
X151996046Y-66526767D01*
X151905564Y-66575132D01*
X151813550Y-66624315D01*
X151813548Y-66624316D01*
X151813547Y-66624317D01*
X151653589Y-66755589D01*
X151522317Y-66915547D01*
X151424769Y-67098043D01*
X151364699Y-67296067D01*
X151344417Y-67502000D01*
X151364699Y-67707932D01*
X151364700Y-67707934D01*
X151424768Y-67905954D01*
X151522315Y-68088450D01*
X151522317Y-68088452D01*
X151653589Y-68248410D01*
X151750209Y-68327702D01*
X151813550Y-68379685D01*
X151996046Y-68477232D01*
X152194066Y-68537300D01*
X152194065Y-68537300D01*
X152212529Y-68539118D01*
X152400000Y-68557583D01*
X152605934Y-68537300D01*
X152803954Y-68477232D01*
X152986450Y-68379685D01*
X153146410Y-68248410D01*
X153277685Y-68088450D01*
X153375232Y-67905954D01*
X153435300Y-67707934D01*
X153455583Y-67502000D01*
X153435300Y-67296066D01*
X153375232Y-67098046D01*
X153277685Y-66915550D01*
X153193620Y-66813116D01*
X153146410Y-66755589D01*
X152996121Y-66632252D01*
X152986450Y-66624315D01*
X152803954Y-66526768D01*
X152737447Y-66506593D01*
X152679009Y-66468296D01*
X152650553Y-66404484D01*
X152661113Y-66335417D01*
X152707337Y-66283023D01*
X152741350Y-66268158D01*
X152863483Y-66235433D01*
X152863492Y-66235429D01*
X153077578Y-66135600D01*
X153271082Y-66000105D01*
X153438105Y-65833082D01*
X153568425Y-65646968D01*
X153623002Y-65603344D01*
X153692501Y-65596151D01*
X153754855Y-65627673D01*
X153771575Y-65646968D01*
X153901894Y-65833082D01*
X154068917Y-66000105D01*
X154262421Y-66135600D01*
X154432948Y-66215118D01*
X154485387Y-66261290D01*
X154504539Y-66328484D01*
X154484323Y-66395365D01*
X154431158Y-66440700D01*
X154380543Y-66451500D01*
X154070247Y-66451500D01*
X154011770Y-66463131D01*
X154011769Y-66463132D01*
X153945447Y-66507447D01*
X153901132Y-66573769D01*
X153901131Y-66573770D01*
X153889500Y-66632247D01*
X153889500Y-68371752D01*
X153901131Y-68430229D01*
X153901132Y-68430230D01*
X153945447Y-68496552D01*
X154011769Y-68540867D01*
X154011770Y-68540868D01*
X154070247Y-68552499D01*
X154070250Y-68552500D01*
X154070252Y-68552500D01*
X155809750Y-68552500D01*
X155809751Y-68552499D01*
X155824568Y-68549552D01*
X155868229Y-68540868D01*
X155868229Y-68540867D01*
X155868231Y-68540867D01*
X155934552Y-68496552D01*
X155978867Y-68430231D01*
X155978867Y-68430229D01*
X155978868Y-68430229D01*
X155990499Y-68371752D01*
X155990500Y-68371750D01*
X155990500Y-66632249D01*
X155990499Y-66632247D01*
X155978868Y-66573770D01*
X155978867Y-66573769D01*
X155934552Y-66507447D01*
X155868230Y-66463132D01*
X155868229Y-66463131D01*
X155809752Y-66451500D01*
X155809748Y-66451500D01*
X155499457Y-66451500D01*
X155432418Y-66431815D01*
X155386663Y-66379011D01*
X155376719Y-66309853D01*
X155405744Y-66246297D01*
X155447052Y-66215118D01*
X155617578Y-66135600D01*
X155811082Y-66000105D01*
X155978105Y-65833082D01*
X156113600Y-65639578D01*
X156213429Y-65425492D01*
X156213432Y-65425486D01*
X156270636Y-65212000D01*
X155373012Y-65212000D01*
X155405925Y-65154993D01*
X155440000Y-65027826D01*
X155440000Y-64896174D01*
X155405925Y-64769007D01*
X155373012Y-64712000D01*
X156270636Y-64712000D01*
X156270635Y-64711999D01*
X156213432Y-64498513D01*
X156213429Y-64498507D01*
X156113600Y-64284422D01*
X156113599Y-64284420D01*
X155978113Y-64090926D01*
X155978108Y-64090920D01*
X155811082Y-63923894D01*
X155624968Y-63793575D01*
X155581344Y-63738998D01*
X155574151Y-63669499D01*
X155605673Y-63607145D01*
X155624968Y-63590425D01*
X155811082Y-63460105D01*
X155978105Y-63293082D01*
X156113600Y-63099578D01*
X156213429Y-62885492D01*
X156213432Y-62885486D01*
X156270636Y-62672000D01*
X155373012Y-62672000D01*
X155405925Y-62614993D01*
X155440000Y-62487826D01*
X155440000Y-62356174D01*
X155405925Y-62229007D01*
X155373012Y-62172000D01*
X156270636Y-62172000D01*
X156270635Y-62171999D01*
X156213432Y-61958513D01*
X156213429Y-61958507D01*
X156113600Y-61744422D01*
X156113599Y-61744420D01*
X155978113Y-61550926D01*
X155978108Y-61550920D01*
X155811082Y-61383894D01*
X155624968Y-61253575D01*
X155581344Y-61198998D01*
X155574151Y-61129499D01*
X155605673Y-61067145D01*
X155624968Y-61050425D01*
X155811082Y-60920105D01*
X155978105Y-60753082D01*
X156113600Y-60559578D01*
X156213429Y-60345492D01*
X156213432Y-60345486D01*
X156270636Y-60132000D01*
X155373012Y-60132000D01*
X155405925Y-60074993D01*
X155440000Y-59947826D01*
X155440000Y-59816174D01*
X155405925Y-59689007D01*
X155373012Y-59632000D01*
X156270636Y-59632000D01*
X156270635Y-59631999D01*
X156213432Y-59418513D01*
X156213429Y-59418507D01*
X156113600Y-59204422D01*
X156113599Y-59204420D01*
X155978113Y-59010926D01*
X155978108Y-59010920D01*
X155811082Y-58843894D01*
X155617578Y-58708399D01*
X155403492Y-58608570D01*
X155403486Y-58608567D01*
X155281349Y-58575841D01*
X155221689Y-58539476D01*
X155191160Y-58476629D01*
X155199455Y-58407253D01*
X155243940Y-58353375D01*
X155277444Y-58337407D01*
X155343954Y-58317232D01*
X155526450Y-58219685D01*
X155686410Y-58088410D01*
X155817685Y-57928450D01*
X155915232Y-57745954D01*
X155975300Y-57547934D01*
X155995583Y-57342000D01*
X155975300Y-57136066D01*
X155915232Y-56938046D01*
X155817685Y-56755550D01*
X155765702Y-56692209D01*
X155686410Y-56595589D01*
X155526452Y-56464317D01*
X155526453Y-56464317D01*
X155526450Y-56464315D01*
X155343954Y-56366768D01*
X155145934Y-56306700D01*
X155145932Y-56306699D01*
X155145934Y-56306699D01*
X154940000Y-56286417D01*
X154734067Y-56306699D01*
X154536043Y-56366769D01*
X154425898Y-56425643D01*
X154353550Y-56464315D01*
X154353548Y-56464316D01*
X154353547Y-56464317D01*
X154193589Y-56595589D01*
X154062317Y-56755547D01*
X153964769Y-56938043D01*
X153904699Y-57136067D01*
X153884417Y-57342000D01*
X153904699Y-57547932D01*
X153904700Y-57547934D01*
X153964768Y-57745954D01*
X154062315Y-57928450D01*
X154062317Y-57928452D01*
X154193589Y-58088410D01*
X154290209Y-58167702D01*
X154353550Y-58219685D01*
X154536046Y-58317232D01*
X154602551Y-58337405D01*
X154660989Y-58375702D01*
X154689446Y-58439514D01*
X154678887Y-58508581D01*
X154632663Y-58560975D01*
X154598650Y-58575841D01*
X154476514Y-58608567D01*
X154476507Y-58608570D01*
X154262422Y-58708399D01*
X154262420Y-58708400D01*
X154068926Y-58843886D01*
X154068920Y-58843891D01*
X153901891Y-59010920D01*
X153901890Y-59010922D01*
X153771575Y-59197031D01*
X153716998Y-59240655D01*
X153647499Y-59247848D01*
X153585145Y-59216326D01*
X153568425Y-59197031D01*
X153438109Y-59010922D01*
X153438108Y-59010920D01*
X153271082Y-58843894D01*
X153077578Y-58708399D01*
X152863492Y-58608570D01*
X152863486Y-58608567D01*
X152741349Y-58575841D01*
X152681689Y-58539476D01*
X152651160Y-58476629D01*
X152659455Y-58407253D01*
X152703940Y-58353375D01*
X152737444Y-58337407D01*
X152803954Y-58317232D01*
X152986450Y-58219685D01*
X153146410Y-58088410D01*
X153277685Y-57928450D01*
X153375232Y-57745954D01*
X153435300Y-57547934D01*
X153455583Y-57342000D01*
X153435300Y-57136066D01*
X153375232Y-56938046D01*
X153277685Y-56755550D01*
X153225702Y-56692209D01*
X153146410Y-56595589D01*
X152986452Y-56464317D01*
X152986453Y-56464317D01*
X152986450Y-56464315D01*
X152803954Y-56366768D01*
X152605934Y-56306700D01*
X152605932Y-56306699D01*
X152605934Y-56306699D01*
X152400000Y-56286417D01*
X152194067Y-56306699D01*
X151996043Y-56366769D01*
X151885898Y-56425643D01*
X151813550Y-56464315D01*
X151813548Y-56464316D01*
X151813547Y-56464317D01*
X151653589Y-56595589D01*
X151522317Y-56755547D01*
X151424769Y-56938043D01*
X151364699Y-57136067D01*
X151344417Y-57342000D01*
X151364699Y-57547932D01*
X151364700Y-57547934D01*
X151424768Y-57745954D01*
X151522315Y-57928450D01*
X151522317Y-57928452D01*
X151653589Y-58088410D01*
X151750209Y-58167702D01*
X151813550Y-58219685D01*
X151996046Y-58317232D01*
X152062551Y-58337405D01*
X152120989Y-58375702D01*
X152149446Y-58439514D01*
X152138887Y-58508581D01*
X152092663Y-58560975D01*
X152058650Y-58575841D01*
X151936514Y-58608567D01*
X151936507Y-58608570D01*
X151722422Y-58708399D01*
X151722420Y-58708400D01*
X151528926Y-58843886D01*
X151528920Y-58843891D01*
X151361891Y-59010920D01*
X151361886Y-59010926D01*
X151226400Y-59204420D01*
X151226399Y-59204422D01*
X151126570Y-59418507D01*
X151126567Y-59418513D01*
X151069364Y-59631999D01*
X131314112Y-59631999D01*
X131274269Y-59483303D01*
X131274264Y-59483289D01*
X131178136Y-59277142D01*
X131178132Y-59277134D01*
X131127025Y-59204147D01*
X130448000Y-59883172D01*
X130448000Y-59876960D01*
X130420741Y-59775227D01*
X130368080Y-59684015D01*
X130293606Y-59609541D01*
X130202394Y-59556880D01*
X130100661Y-59529621D01*
X130094448Y-59529621D01*
X130773472Y-58850595D01*
X130700478Y-58799484D01*
X130494331Y-58703356D01*
X130494317Y-58703351D01*
X130384387Y-58673896D01*
X130324726Y-58637531D01*
X130294197Y-58574684D01*
X130302492Y-58505309D01*
X130346977Y-58451431D01*
X130413529Y-58430156D01*
X130416480Y-58430121D01*
X130867750Y-58430121D01*
X130867751Y-58430120D01*
X130882568Y-58427173D01*
X130926229Y-58418489D01*
X130926229Y-58418488D01*
X130926231Y-58418488D01*
X130992552Y-58374173D01*
X131036867Y-58307852D01*
X131036867Y-58307850D01*
X131036868Y-58307850D01*
X131048499Y-58249373D01*
X131048500Y-58249371D01*
X131048500Y-56609870D01*
X131048499Y-56609868D01*
X131036868Y-56551391D01*
X131036867Y-56551390D01*
X130992552Y-56485068D01*
X130926230Y-56440753D01*
X130926229Y-56440752D01*
X130867752Y-56429121D01*
X130867748Y-56429121D01*
X129228252Y-56429121D01*
X129228247Y-56429121D01*
X129169770Y-56440752D01*
X129169769Y-56440753D01*
X129103447Y-56485068D01*
X129059132Y-56551390D01*
X129059131Y-56551391D01*
X129047500Y-56609868D01*
X129047500Y-58249373D01*
X129059131Y-58307850D01*
X129059132Y-58307851D01*
X129103447Y-58374173D01*
X129169769Y-58418488D01*
X129169770Y-58418489D01*
X129228247Y-58430120D01*
X129228250Y-58430121D01*
X129679520Y-58430121D01*
X129746559Y-58449806D01*
X129792314Y-58502610D01*
X129802258Y-58571768D01*
X129773233Y-58635324D01*
X129714455Y-58673098D01*
X129711613Y-58673896D01*
X129601682Y-58703351D01*
X129601673Y-58703355D01*
X129395516Y-58799487D01*
X129395512Y-58799489D01*
X129322526Y-58850594D01*
X129322526Y-58850595D01*
X130001553Y-59529621D01*
X129995339Y-59529621D01*
X129893606Y-59556880D01*
X129802394Y-59609541D01*
X129727920Y-59684015D01*
X129675259Y-59775227D01*
X129648000Y-59876960D01*
X129648000Y-59883173D01*
X128968974Y-59204147D01*
X128968973Y-59204147D01*
X128917868Y-59277133D01*
X128917866Y-59277137D01*
X128821734Y-59483294D01*
X128821730Y-59483303D01*
X128762860Y-59703010D01*
X128762858Y-59703021D01*
X128743034Y-59929618D01*
X99228000Y-59929618D01*
X99228000Y-57096764D01*
X99247685Y-57029725D01*
X99276514Y-56998388D01*
X99328782Y-56958282D01*
X99425036Y-56832841D01*
X99485544Y-56686762D01*
X99506182Y-56530000D01*
X99497534Y-56464315D01*
X99485544Y-56373239D01*
X99485544Y-56373238D01*
X99425036Y-56227159D01*
X99328782Y-56101718D01*
X99328780Y-56101717D01*
X99328780Y-56101716D01*
X99203341Y-56005464D01*
X99203338Y-56005462D01*
X99169413Y-55991410D01*
X99129185Y-55964530D01*
X99101591Y-55936936D01*
X99101590Y-55936935D01*
X99026910Y-55893819D01*
X99026911Y-55893819D01*
X98999145Y-55886379D01*
X98943616Y-55871500D01*
X98857384Y-55871500D01*
X98801854Y-55886379D01*
X98774089Y-55893819D01*
X98699411Y-55936934D01*
X98671811Y-55964533D01*
X98631590Y-55991408D01*
X98597657Y-56005464D01*
X98472219Y-56101716D01*
X98375963Y-56227160D01*
X98315456Y-56373237D01*
X98315455Y-56373239D01*
X98294818Y-56529998D01*
X60325000Y-56529998D01*
X60325000Y-53111000D01*
X68717659Y-53111000D01*
X68736975Y-53307129D01*
X68794188Y-53495733D01*
X68887086Y-53669532D01*
X68887090Y-53669539D01*
X69012116Y-53821883D01*
X69164460Y-53946909D01*
X69164467Y-53946913D01*
X69338266Y-54039811D01*
X69338269Y-54039811D01*
X69338273Y-54039814D01*
X69526868Y-54097024D01*
X69723000Y-54116341D01*
X69919132Y-54097024D01*
X70107727Y-54039814D01*
X70281538Y-53946910D01*
X70433883Y-53821883D01*
X70558910Y-53669538D01*
X70651814Y-53495727D01*
X70709024Y-53307132D01*
X70728341Y-53111000D01*
X70709024Y-52914868D01*
X70651814Y-52726273D01*
X70651811Y-52726269D01*
X70651811Y-52726266D01*
X70558913Y-52552467D01*
X70558909Y-52552460D01*
X70433883Y-52400116D01*
X70281539Y-52275090D01*
X70281532Y-52275086D01*
X70107733Y-52182188D01*
X70107727Y-52182186D01*
X69919132Y-52124976D01*
X69919129Y-52124975D01*
X69723000Y-52105659D01*
X69526870Y-52124975D01*
X69338266Y-52182188D01*
X69164467Y-52275086D01*
X69164460Y-52275090D01*
X69012116Y-52400116D01*
X68887090Y-52552460D01*
X68887086Y-52552467D01*
X68794188Y-52726266D01*
X68736975Y-52914870D01*
X68717659Y-53111000D01*
X60325000Y-53111000D01*
X60325000Y-49791247D01*
X68722500Y-49791247D01*
X68722500Y-51430752D01*
X68734131Y-51489229D01*
X68734132Y-51489230D01*
X68778447Y-51555552D01*
X68844769Y-51599867D01*
X68844770Y-51599868D01*
X68903247Y-51611499D01*
X68903250Y-51611500D01*
X68903252Y-51611500D01*
X70542750Y-51611500D01*
X70542751Y-51611499D01*
X70557568Y-51608552D01*
X70601229Y-51599868D01*
X70601229Y-51599867D01*
X70601231Y-51599867D01*
X70667552Y-51555552D01*
X70711867Y-51489231D01*
X70711867Y-51489229D01*
X70711868Y-51489229D01*
X70717682Y-51460000D01*
X87259659Y-51460000D01*
X87278975Y-51656129D01*
X87336188Y-51844733D01*
X87429086Y-52018532D01*
X87429090Y-52018539D01*
X87554116Y-52170883D01*
X87706460Y-52295909D01*
X87706467Y-52295913D01*
X87880266Y-52388811D01*
X87880269Y-52388811D01*
X87880273Y-52388814D01*
X88068868Y-52446024D01*
X88265000Y-52465341D01*
X88461132Y-52446024D01*
X88649727Y-52388814D01*
X88823538Y-52295910D01*
X88975883Y-52170883D01*
X89100910Y-52018538D01*
X89193814Y-51844727D01*
X89251024Y-51656132D01*
X89270341Y-51460000D01*
X89251024Y-51263868D01*
X89193814Y-51075273D01*
X89193811Y-51075269D01*
X89193811Y-51075266D01*
X89100913Y-50901467D01*
X89100909Y-50901460D01*
X88975883Y-50749116D01*
X88823539Y-50624090D01*
X88823532Y-50624086D01*
X88649733Y-50531188D01*
X88649727Y-50531186D01*
X88461132Y-50473976D01*
X88461129Y-50473975D01*
X88265000Y-50454659D01*
X88068870Y-50473975D01*
X87880266Y-50531188D01*
X87706467Y-50624086D01*
X87706460Y-50624090D01*
X87554116Y-50749116D01*
X87429090Y-50901460D01*
X87429086Y-50901467D01*
X87336188Y-51075266D01*
X87278975Y-51263870D01*
X87259659Y-51460000D01*
X70717682Y-51460000D01*
X70723499Y-51430752D01*
X70723500Y-51430750D01*
X70723500Y-49791249D01*
X70723499Y-49791247D01*
X70711868Y-49732770D01*
X70711867Y-49732769D01*
X70667552Y-49666447D01*
X70601230Y-49622132D01*
X70601229Y-49622131D01*
X70542752Y-49610500D01*
X70542748Y-49610500D01*
X68903252Y-49610500D01*
X68903247Y-49610500D01*
X68844770Y-49622131D01*
X68844769Y-49622132D01*
X68778447Y-49666447D01*
X68734132Y-49732769D01*
X68734131Y-49732770D01*
X68722500Y-49791247D01*
X60325000Y-49791247D01*
X60325000Y-48140247D01*
X87264500Y-48140247D01*
X87264500Y-49779752D01*
X87276131Y-49838229D01*
X87276132Y-49838230D01*
X87320447Y-49904552D01*
X87386769Y-49948867D01*
X87386770Y-49948868D01*
X87445247Y-49960499D01*
X87445250Y-49960500D01*
X87445252Y-49960500D01*
X89084750Y-49960500D01*
X89084751Y-49960499D01*
X89099568Y-49957552D01*
X89143229Y-49948868D01*
X89143229Y-49948867D01*
X89143231Y-49948867D01*
X89209552Y-49904552D01*
X89253867Y-49838231D01*
X89253867Y-49838229D01*
X89253868Y-49838229D01*
X89265499Y-49779752D01*
X89265500Y-49779750D01*
X89265500Y-49474000D01*
X122946659Y-49474000D01*
X122965975Y-49670129D01*
X122965976Y-49670132D01*
X122999228Y-49779750D01*
X123023188Y-49858733D01*
X123116086Y-50032532D01*
X123116090Y-50032539D01*
X123241116Y-50184883D01*
X123393460Y-50309909D01*
X123393467Y-50309913D01*
X123567266Y-50402811D01*
X123567269Y-50402811D01*
X123567273Y-50402814D01*
X123755868Y-50460024D01*
X123952000Y-50479341D01*
X124148132Y-50460024D01*
X124336727Y-50402814D01*
X124510538Y-50309910D01*
X124662883Y-50184883D01*
X124787910Y-50032538D01*
X124880814Y-49858727D01*
X124938024Y-49670132D01*
X124957341Y-49474000D01*
X124938024Y-49277868D01*
X124880814Y-49089273D01*
X124880811Y-49089269D01*
X124880811Y-49089266D01*
X124787913Y-48915467D01*
X124787909Y-48915460D01*
X124662883Y-48763116D01*
X124510539Y-48638090D01*
X124510532Y-48638086D01*
X124336733Y-48545188D01*
X124336727Y-48545186D01*
X124148132Y-48487976D01*
X124148129Y-48487975D01*
X123952000Y-48468659D01*
X123755870Y-48487975D01*
X123567266Y-48545188D01*
X123393467Y-48638086D01*
X123393460Y-48638090D01*
X123241116Y-48763116D01*
X123116090Y-48915460D01*
X123116086Y-48915467D01*
X123023188Y-49089266D01*
X122965975Y-49277870D01*
X122946659Y-49474000D01*
X89265500Y-49474000D01*
X89265500Y-48140249D01*
X89265499Y-48140247D01*
X89253868Y-48081770D01*
X89253867Y-48081769D01*
X89209552Y-48015447D01*
X89143230Y-47971132D01*
X89143229Y-47971131D01*
X89084752Y-47959500D01*
X89084748Y-47959500D01*
X87445252Y-47959500D01*
X87445247Y-47959500D01*
X87386770Y-47971131D01*
X87386769Y-47971132D01*
X87320447Y-48015447D01*
X87276132Y-48081769D01*
X87276131Y-48081770D01*
X87264500Y-48140247D01*
X60325000Y-48140247D01*
X60325000Y-43834247D01*
X103343500Y-43834247D01*
X103343500Y-45573752D01*
X103355131Y-45632229D01*
X103355132Y-45632230D01*
X103399447Y-45698552D01*
X103465769Y-45742867D01*
X103465770Y-45742868D01*
X103524247Y-45754499D01*
X103524250Y-45754500D01*
X103524252Y-45754500D01*
X105263750Y-45754500D01*
X105263751Y-45754499D01*
X105278568Y-45751552D01*
X105322229Y-45742868D01*
X105322229Y-45742867D01*
X105322231Y-45742867D01*
X105388552Y-45698552D01*
X105432867Y-45632231D01*
X105432867Y-45632229D01*
X105432868Y-45632229D01*
X105442922Y-45581682D01*
X105444500Y-45573748D01*
X105444500Y-45263456D01*
X105464185Y-45196417D01*
X105516989Y-45150662D01*
X105586147Y-45140718D01*
X105649703Y-45169743D01*
X105680882Y-45211051D01*
X105760400Y-45381578D01*
X105895894Y-45575082D01*
X106062917Y-45742105D01*
X106256421Y-45877600D01*
X106470507Y-45977429D01*
X106470516Y-45977433D01*
X106684000Y-46034634D01*
X106684000Y-45137012D01*
X106741007Y-45169925D01*
X106868174Y-45204000D01*
X106999826Y-45204000D01*
X107126993Y-45169925D01*
X107184000Y-45137012D01*
X107184000Y-46034633D01*
X107397483Y-45977433D01*
X107397492Y-45977429D01*
X107611578Y-45877600D01*
X107805082Y-45742105D01*
X107972105Y-45575082D01*
X108107600Y-45381578D01*
X108207429Y-45167492D01*
X108207433Y-45167483D01*
X108240158Y-45045350D01*
X108276522Y-44985690D01*
X108339369Y-44955160D01*
X108408745Y-44963454D01*
X108462623Y-45007939D01*
X108478593Y-45041447D01*
X108498768Y-45107954D01*
X108596315Y-45290450D01*
X108596317Y-45290452D01*
X108727589Y-45450410D01*
X108824209Y-45529702D01*
X108887550Y-45581685D01*
X109070046Y-45679232D01*
X109268066Y-45739300D01*
X109268065Y-45739300D01*
X109286529Y-45741118D01*
X109474000Y-45759583D01*
X109679934Y-45739300D01*
X109877954Y-45679232D01*
X110060450Y-45581685D01*
X110220410Y-45450410D01*
X110351685Y-45290450D01*
X110424488Y-45154247D01*
X122951500Y-45154247D01*
X122951500Y-46793752D01*
X122963131Y-46852229D01*
X122963132Y-46852230D01*
X123007447Y-46918552D01*
X123073769Y-46962867D01*
X123073770Y-46962868D01*
X123132247Y-46974499D01*
X123132250Y-46974500D01*
X123132252Y-46974500D01*
X124771750Y-46974500D01*
X124771751Y-46974499D01*
X124786568Y-46971552D01*
X124830229Y-46962868D01*
X124830229Y-46962867D01*
X124830231Y-46962867D01*
X124896552Y-46918552D01*
X124940867Y-46852231D01*
X124940867Y-46852229D01*
X124940868Y-46852229D01*
X124952499Y-46793752D01*
X124952500Y-46793750D01*
X124952500Y-45154249D01*
X124952499Y-45154247D01*
X124940868Y-45095770D01*
X124940867Y-45095769D01*
X124896552Y-45029447D01*
X124830230Y-44985132D01*
X124830229Y-44985131D01*
X124771752Y-44973500D01*
X124771748Y-44973500D01*
X123132252Y-44973500D01*
X123132247Y-44973500D01*
X123073770Y-44985131D01*
X123073769Y-44985132D01*
X123007447Y-45029447D01*
X122963132Y-45095769D01*
X122963131Y-45095770D01*
X122951500Y-45154247D01*
X110424488Y-45154247D01*
X110449232Y-45107954D01*
X110509300Y-44909934D01*
X110529583Y-44704000D01*
X110509300Y-44498066D01*
X110449232Y-44300046D01*
X110351685Y-44117550D01*
X110276897Y-44026420D01*
X110220410Y-43957589D01*
X110070121Y-43834252D01*
X110060450Y-43826315D01*
X109877954Y-43728768D01*
X109679934Y-43668700D01*
X109679932Y-43668699D01*
X109679934Y-43668699D01*
X109474000Y-43648417D01*
X109268067Y-43668699D01*
X109070043Y-43728769D01*
X108982114Y-43775769D01*
X108887550Y-43826315D01*
X108887548Y-43826316D01*
X108887547Y-43826317D01*
X108727589Y-43957589D01*
X108596317Y-44117547D01*
X108498767Y-44300046D01*
X108478593Y-44366552D01*
X108440296Y-44424990D01*
X108376483Y-44453447D01*
X108307416Y-44442886D01*
X108255023Y-44396661D01*
X108240158Y-44362649D01*
X108207433Y-44240516D01*
X108207429Y-44240507D01*
X108107600Y-44026422D01*
X108107599Y-44026420D01*
X107972113Y-43832926D01*
X107972108Y-43832920D01*
X107805082Y-43665894D01*
X107611578Y-43530399D01*
X107397492Y-43430570D01*
X107397486Y-43430567D01*
X107184000Y-43373364D01*
X107184000Y-44270988D01*
X107126993Y-44238075D01*
X106999826Y-44204000D01*
X106868174Y-44204000D01*
X106741007Y-44238075D01*
X106684000Y-44270988D01*
X106684000Y-43373364D01*
X106683999Y-43373364D01*
X106470513Y-43430567D01*
X106470507Y-43430570D01*
X106256422Y-43530399D01*
X106256420Y-43530400D01*
X106062926Y-43665886D01*
X106062920Y-43665891D01*
X105895891Y-43832920D01*
X105895886Y-43832926D01*
X105760400Y-44026420D01*
X105760399Y-44026422D01*
X105680882Y-44196948D01*
X105634710Y-44249387D01*
X105567516Y-44268539D01*
X105500635Y-44248323D01*
X105455300Y-44195158D01*
X105444500Y-44144543D01*
X105444500Y-43834249D01*
X105444499Y-43834247D01*
X105432868Y-43775770D01*
X105432867Y-43775769D01*
X105388552Y-43709447D01*
X105322230Y-43665132D01*
X105322229Y-43665131D01*
X105263752Y-43653500D01*
X105263748Y-43653500D01*
X103524252Y-43653500D01*
X103524247Y-43653500D01*
X103465770Y-43665131D01*
X103465769Y-43665132D01*
X103399447Y-43709447D01*
X103355132Y-43775769D01*
X103355131Y-43775770D01*
X103343500Y-43834247D01*
X60325000Y-43834247D01*
X60325000Y-38734996D01*
X61764415Y-38734996D01*
X61764415Y-38735003D01*
X61784738Y-39083927D01*
X61784739Y-39083938D01*
X61845428Y-39428127D01*
X61845430Y-39428134D01*
X61945674Y-39762972D01*
X62084107Y-40083895D01*
X62084113Y-40083908D01*
X62258870Y-40386597D01*
X62467584Y-40666949D01*
X62467589Y-40666955D01*
X62567889Y-40773266D01*
X62707442Y-40921183D01*
X62883903Y-41069251D01*
X62975186Y-41145847D01*
X62975194Y-41145853D01*
X63267203Y-41337911D01*
X63517233Y-41463481D01*
X63579549Y-41494777D01*
X63907989Y-41614319D01*
X64248086Y-41694923D01*
X64595241Y-41735500D01*
X64595248Y-41735500D01*
X64944752Y-41735500D01*
X64944759Y-41735500D01*
X65291914Y-41694923D01*
X65632011Y-41614319D01*
X65960451Y-41494777D01*
X66272793Y-41337913D01*
X66546336Y-41158000D01*
X77204659Y-41158000D01*
X77223975Y-41354129D01*
X77223976Y-41354132D01*
X77266640Y-41494777D01*
X77281188Y-41542733D01*
X77374086Y-41716532D01*
X77374090Y-41716539D01*
X77499116Y-41868883D01*
X77651460Y-41993909D01*
X77651467Y-41993913D01*
X77825266Y-42086811D01*
X77825269Y-42086811D01*
X77825273Y-42086814D01*
X78013868Y-42144024D01*
X78210000Y-42163341D01*
X78406132Y-42144024D01*
X78594727Y-42086814D01*
X78768538Y-41993910D01*
X78920883Y-41868883D01*
X79045910Y-41716538D01*
X79138814Y-41542727D01*
X79178470Y-41412000D01*
X90191159Y-41412000D01*
X90210475Y-41608129D01*
X90267688Y-41796733D01*
X90360586Y-41970532D01*
X90360590Y-41970539D01*
X90485616Y-42122883D01*
X90637960Y-42247909D01*
X90637967Y-42247913D01*
X90811766Y-42340811D01*
X90811769Y-42340811D01*
X90811773Y-42340814D01*
X91000368Y-42398024D01*
X91196500Y-42417341D01*
X91392632Y-42398024D01*
X91581227Y-42340814D01*
X91755038Y-42247910D01*
X91907383Y-42122883D01*
X92032410Y-41970538D01*
X92125314Y-41796727D01*
X92182524Y-41608132D01*
X92201841Y-41412000D01*
X92187594Y-41267349D01*
X128512659Y-41267349D01*
X128531975Y-41463478D01*
X128531976Y-41463481D01*
X128577732Y-41614319D01*
X128589188Y-41652082D01*
X128682086Y-41825881D01*
X128682090Y-41825888D01*
X128807116Y-41978232D01*
X128959460Y-42103258D01*
X128959467Y-42103262D01*
X129133266Y-42196160D01*
X129133269Y-42196160D01*
X129133273Y-42196163D01*
X129321868Y-42253373D01*
X129518000Y-42272690D01*
X129714132Y-42253373D01*
X129902727Y-42196163D01*
X129964135Y-42163340D01*
X130076532Y-42103262D01*
X130076538Y-42103259D01*
X130228883Y-41978232D01*
X130353910Y-41825887D01*
X130446814Y-41652076D01*
X130504024Y-41463481D01*
X130523341Y-41267349D01*
X130504024Y-41071217D01*
X130446814Y-40882622D01*
X130446811Y-40882618D01*
X130446811Y-40882615D01*
X130353913Y-40708816D01*
X130353909Y-40708809D01*
X130228883Y-40556465D01*
X130076539Y-40431439D01*
X130076532Y-40431435D01*
X129902733Y-40338537D01*
X129902727Y-40338535D01*
X129714132Y-40281325D01*
X129714129Y-40281324D01*
X129518000Y-40262008D01*
X129321870Y-40281324D01*
X129133266Y-40338537D01*
X128959467Y-40431435D01*
X128959460Y-40431439D01*
X128807116Y-40556465D01*
X128682090Y-40708809D01*
X128682086Y-40708816D01*
X128589188Y-40882615D01*
X128531975Y-41071219D01*
X128512659Y-41267349D01*
X92187594Y-41267349D01*
X92182524Y-41215868D01*
X92125314Y-41027273D01*
X92125311Y-41027269D01*
X92125311Y-41027266D01*
X92032413Y-40853467D01*
X92032409Y-40853460D01*
X91907383Y-40701116D01*
X91755039Y-40576090D01*
X91755032Y-40576086D01*
X91581233Y-40483188D01*
X91581227Y-40483186D01*
X91392632Y-40425976D01*
X91392629Y-40425975D01*
X91196500Y-40406659D01*
X91000370Y-40425975D01*
X90811766Y-40483188D01*
X90637967Y-40576086D01*
X90637960Y-40576090D01*
X90485616Y-40701116D01*
X90360590Y-40853460D01*
X90360586Y-40853467D01*
X90267688Y-41027266D01*
X90210475Y-41215870D01*
X90191159Y-41412000D01*
X79178470Y-41412000D01*
X79196024Y-41354132D01*
X79215341Y-41158000D01*
X79196024Y-40961868D01*
X79138814Y-40773273D01*
X79138811Y-40773269D01*
X79138811Y-40773266D01*
X79045913Y-40599467D01*
X79045909Y-40599460D01*
X78920883Y-40447116D01*
X78768539Y-40322090D01*
X78768532Y-40322086D01*
X78594733Y-40229188D01*
X78594727Y-40229186D01*
X78406132Y-40171976D01*
X78406129Y-40171975D01*
X78210000Y-40152659D01*
X78013870Y-40171975D01*
X77825266Y-40229188D01*
X77651467Y-40322086D01*
X77651460Y-40322090D01*
X77499116Y-40447116D01*
X77374090Y-40599460D01*
X77374086Y-40599467D01*
X77281188Y-40773266D01*
X77223975Y-40961870D01*
X77204659Y-41158000D01*
X66546336Y-41158000D01*
X66564811Y-41145849D01*
X66832558Y-40921183D01*
X67072412Y-40666953D01*
X67281130Y-40386596D01*
X67455889Y-40083904D01*
X67472454Y-40045502D01*
X67517081Y-39991742D01*
X67554529Y-39974758D01*
X68118159Y-39825315D01*
X68584597Y-39701642D01*
X68616377Y-39697500D01*
X68685351Y-39697500D01*
X68752390Y-39717185D01*
X68785119Y-39747864D01*
X68830350Y-39809150D01*
X68939618Y-39889793D01*
X68971266Y-39900867D01*
X69067799Y-39934646D01*
X69098230Y-39937500D01*
X69098234Y-39937500D01*
X69831770Y-39937500D01*
X69862199Y-39934646D01*
X69862201Y-39934646D01*
X69926290Y-39912219D01*
X69990382Y-39889793D01*
X70099650Y-39809150D01*
X70180293Y-39699882D01*
X70214350Y-39602552D01*
X70225146Y-39571701D01*
X70225146Y-39571699D01*
X70228000Y-39541269D01*
X70228000Y-39536986D01*
X71327501Y-39536986D01*
X71337994Y-39639697D01*
X71393141Y-39806119D01*
X71393143Y-39806124D01*
X71485184Y-39955345D01*
X71609154Y-40079315D01*
X71758375Y-40171356D01*
X71758380Y-40171358D01*
X71924802Y-40226505D01*
X71924809Y-40226506D01*
X72027519Y-40236999D01*
X72139999Y-40236999D01*
X72640000Y-40236999D01*
X72752472Y-40236999D01*
X72752486Y-40236998D01*
X72855197Y-40226505D01*
X73021619Y-40171358D01*
X73021624Y-40171356D01*
X73170845Y-40079315D01*
X73294815Y-39955345D01*
X73386856Y-39806124D01*
X73386858Y-39806119D01*
X73442005Y-39639697D01*
X73442006Y-39639690D01*
X73452499Y-39536986D01*
X73452500Y-39536973D01*
X73452500Y-39112000D01*
X72640000Y-39112000D01*
X72640000Y-40236999D01*
X72139999Y-40236999D01*
X72140000Y-40236998D01*
X72140000Y-39112000D01*
X71327501Y-39112000D01*
X71327501Y-39536986D01*
X70228000Y-39536986D01*
X70228000Y-39227888D01*
X70237439Y-39180435D01*
X70268393Y-39105706D01*
X70300500Y-38944290D01*
X70300500Y-38779710D01*
X70268393Y-38618294D01*
X70237438Y-38543563D01*
X70228000Y-38496112D01*
X70228000Y-38187013D01*
X71327500Y-38187013D01*
X71327500Y-38612000D01*
X72140000Y-38612000D01*
X72640000Y-38612000D01*
X73452499Y-38612000D01*
X73452499Y-38187028D01*
X73452498Y-38187013D01*
X73442005Y-38084302D01*
X73386858Y-37917880D01*
X73386856Y-37917875D01*
X73337741Y-37838247D01*
X77209500Y-37838247D01*
X77209500Y-39477752D01*
X77221131Y-39536229D01*
X77221132Y-39536230D01*
X77265447Y-39602552D01*
X77331769Y-39646867D01*
X77331770Y-39646868D01*
X77390247Y-39658499D01*
X77390250Y-39658500D01*
X77390252Y-39658500D01*
X79029750Y-39658500D01*
X79029751Y-39658499D01*
X79044568Y-39655552D01*
X79088229Y-39646868D01*
X79088229Y-39646867D01*
X79088231Y-39646867D01*
X79154552Y-39602552D01*
X79198867Y-39536231D01*
X79198867Y-39536229D01*
X79198868Y-39536229D01*
X79210499Y-39477752D01*
X79210500Y-39477750D01*
X79210500Y-38092247D01*
X90196000Y-38092247D01*
X90196000Y-39731752D01*
X90207631Y-39790229D01*
X90207632Y-39790230D01*
X90251947Y-39856552D01*
X90318269Y-39900867D01*
X90318270Y-39900868D01*
X90376747Y-39912499D01*
X90376750Y-39912500D01*
X90376752Y-39912500D01*
X92016250Y-39912500D01*
X92016251Y-39912499D01*
X92031068Y-39909552D01*
X92074729Y-39900868D01*
X92074729Y-39900867D01*
X92074731Y-39900867D01*
X92141052Y-39856552D01*
X92185367Y-39790231D01*
X92185367Y-39790229D01*
X92185368Y-39790229D01*
X92196999Y-39731752D01*
X92197000Y-39731750D01*
X92197000Y-39282986D01*
X143779001Y-39282986D01*
X143789494Y-39385697D01*
X143844641Y-39552119D01*
X143844643Y-39552124D01*
X143936684Y-39701345D01*
X144060654Y-39825315D01*
X144209875Y-39917356D01*
X144209880Y-39917358D01*
X144376302Y-39972505D01*
X144376309Y-39972506D01*
X144479019Y-39982999D01*
X144591499Y-39982999D01*
X145091500Y-39982999D01*
X145203972Y-39982999D01*
X145203986Y-39982998D01*
X145306697Y-39972505D01*
X145473119Y-39917358D01*
X145473124Y-39917356D01*
X145622345Y-39825315D01*
X145746315Y-39701345D01*
X145838356Y-39552124D01*
X145838358Y-39552119D01*
X145893505Y-39385697D01*
X145893506Y-39385690D01*
X145903999Y-39282986D01*
X145904000Y-39282973D01*
X145904000Y-38858000D01*
X145091500Y-38858000D01*
X145091500Y-39982999D01*
X144591499Y-39982999D01*
X144591500Y-39982998D01*
X144591500Y-38858000D01*
X143779001Y-38858000D01*
X143779001Y-39282986D01*
X92197000Y-39282986D01*
X92197000Y-38092249D01*
X92196999Y-38092247D01*
X92185368Y-38033770D01*
X92185367Y-38033769D01*
X92141052Y-37967447D01*
X92074730Y-37923132D01*
X92074729Y-37923131D01*
X92016252Y-37911500D01*
X92016248Y-37911500D01*
X90376752Y-37911500D01*
X90376747Y-37911500D01*
X90318270Y-37923131D01*
X90318269Y-37923132D01*
X90251947Y-37967447D01*
X90207632Y-38033769D01*
X90207631Y-38033770D01*
X90196000Y-38092247D01*
X79210500Y-38092247D01*
X79210500Y-37838249D01*
X79210499Y-37838247D01*
X79198868Y-37779770D01*
X79198867Y-37779769D01*
X79154552Y-37713447D01*
X79088230Y-37669132D01*
X79088229Y-37669131D01*
X79029752Y-37657500D01*
X79029748Y-37657500D01*
X77390252Y-37657500D01*
X77390247Y-37657500D01*
X77331770Y-37669131D01*
X77331769Y-37669132D01*
X77265447Y-37713447D01*
X77221132Y-37779769D01*
X77221131Y-37779770D01*
X77209500Y-37838247D01*
X73337741Y-37838247D01*
X73294815Y-37768654D01*
X73170845Y-37644684D01*
X73021624Y-37552643D01*
X73021619Y-37552641D01*
X72855197Y-37497494D01*
X72855190Y-37497493D01*
X72752486Y-37487000D01*
X72640000Y-37487000D01*
X72640000Y-38612000D01*
X72140000Y-38612000D01*
X72140000Y-37487000D01*
X72027527Y-37487000D01*
X72027512Y-37487001D01*
X71924802Y-37497494D01*
X71758380Y-37552641D01*
X71758375Y-37552643D01*
X71609154Y-37644684D01*
X71485184Y-37768654D01*
X71393143Y-37917875D01*
X71393141Y-37917880D01*
X71337994Y-38084302D01*
X71337993Y-38084309D01*
X71327500Y-38187013D01*
X70228000Y-38187013D01*
X70228000Y-38182730D01*
X70225146Y-38152300D01*
X70225146Y-38152298D01*
X70186503Y-38041865D01*
X70180293Y-38024118D01*
X70099650Y-37914850D01*
X69990382Y-37834207D01*
X69990380Y-37834206D01*
X69862200Y-37789353D01*
X69831770Y-37786500D01*
X69831766Y-37786500D01*
X69098234Y-37786500D01*
X69098230Y-37786500D01*
X69067800Y-37789353D01*
X69067798Y-37789353D01*
X68939619Y-37834206D01*
X68939617Y-37834207D01*
X68830350Y-37914850D01*
X68785121Y-37976134D01*
X68729474Y-38018384D01*
X68685351Y-38026500D01*
X68624785Y-38026500D01*
X68583897Y-38019565D01*
X67628920Y-37686013D01*
X67572121Y-37645323D01*
X67555949Y-37618062D01*
X67527730Y-37552643D01*
X67455889Y-37386096D01*
X67281130Y-37083404D01*
X67245790Y-37035934D01*
X67072415Y-36803050D01*
X67072410Y-36803044D01*
X66915761Y-36637007D01*
X66832558Y-36548817D01*
X66612391Y-36364075D01*
X66564813Y-36324152D01*
X66564805Y-36324146D01*
X66272796Y-36132088D01*
X65960458Y-35975226D01*
X65960452Y-35975223D01*
X65842123Y-35932155D01*
X95805000Y-35932155D01*
X95805000Y-36580000D01*
X96721988Y-36580000D01*
X96689075Y-36637007D01*
X96655000Y-36764174D01*
X96655000Y-36895826D01*
X96689075Y-37022993D01*
X96721988Y-37080000D01*
X95805000Y-37080000D01*
X95805000Y-37727844D01*
X95811401Y-37787372D01*
X95811403Y-37787379D01*
X95861645Y-37922086D01*
X95861649Y-37922093D01*
X95947809Y-38037187D01*
X95947812Y-38037190D01*
X96062906Y-38123350D01*
X96062913Y-38123354D01*
X96197620Y-38173596D01*
X96197627Y-38173598D01*
X96257155Y-38179999D01*
X96257172Y-38180000D01*
X96905000Y-38180000D01*
X96905000Y-37263012D01*
X96962007Y-37295925D01*
X97089174Y-37330000D01*
X97220826Y-37330000D01*
X97347993Y-37295925D01*
X97405000Y-37263012D01*
X97405000Y-38180000D01*
X98052828Y-38180000D01*
X98052844Y-38179999D01*
X98112372Y-38173598D01*
X98112379Y-38173596D01*
X98247086Y-38123354D01*
X98247093Y-38123350D01*
X98362187Y-38037190D01*
X98362190Y-38037187D01*
X98448350Y-37922093D01*
X98448354Y-37922086D01*
X98498596Y-37787379D01*
X98498598Y-37787372D01*
X98504999Y-37727844D01*
X98505000Y-37727827D01*
X98505000Y-37327186D01*
X98524685Y-37260147D01*
X98577489Y-37214392D01*
X98646647Y-37204448D01*
X98710203Y-37233473D01*
X98738356Y-37268729D01*
X98817315Y-37416450D01*
X98851969Y-37458677D01*
X98948589Y-37576410D01*
X99032561Y-37645323D01*
X99108550Y-37707685D01*
X99291046Y-37805232D01*
X99489066Y-37865300D01*
X99489065Y-37865300D01*
X99507529Y-37867118D01*
X99695000Y-37885583D01*
X99900934Y-37865300D01*
X100098954Y-37805232D01*
X100281450Y-37707685D01*
X100441410Y-37576410D01*
X100572685Y-37416450D01*
X100670232Y-37233954D01*
X100730300Y-37035934D01*
X100750583Y-36830000D01*
X101179417Y-36830000D01*
X101199699Y-37035932D01*
X101229734Y-37134944D01*
X101259768Y-37233954D01*
X101357315Y-37416450D01*
X101391969Y-37458677D01*
X101488589Y-37576410D01*
X101572561Y-37645323D01*
X101648550Y-37707685D01*
X101831046Y-37805232D01*
X102029066Y-37865300D01*
X102029065Y-37865300D01*
X102047529Y-37867118D01*
X102235000Y-37885583D01*
X102440934Y-37865300D01*
X102638954Y-37805232D01*
X102821450Y-37707685D01*
X102981410Y-37576410D01*
X103112685Y-37416450D01*
X103210232Y-37233954D01*
X103270300Y-37035934D01*
X103290583Y-36830000D01*
X103270300Y-36624066D01*
X103210232Y-36426046D01*
X103112685Y-36243550D01*
X103021211Y-36132088D01*
X102981410Y-36083589D01*
X102849367Y-35975226D01*
X102821450Y-35952315D01*
X102783734Y-35932155D01*
X115505000Y-35932155D01*
X115505000Y-36580000D01*
X116421988Y-36580000D01*
X116389075Y-36637007D01*
X116355000Y-36764174D01*
X116355000Y-36895826D01*
X116389075Y-37022993D01*
X116421988Y-37080000D01*
X115505000Y-37080000D01*
X115505000Y-37727844D01*
X115511401Y-37787372D01*
X115511403Y-37787379D01*
X115561645Y-37922086D01*
X115561649Y-37922093D01*
X115647809Y-38037187D01*
X115647812Y-38037190D01*
X115762906Y-38123350D01*
X115762913Y-38123354D01*
X115897620Y-38173596D01*
X115897627Y-38173598D01*
X115957155Y-38179999D01*
X115957172Y-38180000D01*
X116605000Y-38180000D01*
X116605000Y-37263012D01*
X116662007Y-37295925D01*
X116789174Y-37330000D01*
X116920826Y-37330000D01*
X117047993Y-37295925D01*
X117105000Y-37263012D01*
X117105000Y-38180000D01*
X117752828Y-38180000D01*
X117752844Y-38179999D01*
X117812372Y-38173598D01*
X117812379Y-38173596D01*
X117947086Y-38123354D01*
X117947093Y-38123350D01*
X118062187Y-38037190D01*
X118062190Y-38037187D01*
X118148350Y-37922093D01*
X118148354Y-37922086D01*
X118198596Y-37787379D01*
X118198598Y-37787372D01*
X118204999Y-37727844D01*
X118205000Y-37727827D01*
X118205000Y-37327186D01*
X118224685Y-37260147D01*
X118277489Y-37214392D01*
X118346647Y-37204448D01*
X118410203Y-37233473D01*
X118438356Y-37268729D01*
X118517315Y-37416450D01*
X118551969Y-37458677D01*
X118648589Y-37576410D01*
X118732561Y-37645323D01*
X118808550Y-37707685D01*
X118991046Y-37805232D01*
X119189066Y-37865300D01*
X119189065Y-37865300D01*
X119207529Y-37867118D01*
X119395000Y-37885583D01*
X119600934Y-37865300D01*
X119798954Y-37805232D01*
X119981450Y-37707685D01*
X120141410Y-37576410D01*
X120272685Y-37416450D01*
X120370232Y-37233954D01*
X120430300Y-37035934D01*
X120450583Y-36830000D01*
X120879417Y-36830000D01*
X120899699Y-37035932D01*
X120929734Y-37134944D01*
X120959768Y-37233954D01*
X121057315Y-37416450D01*
X121091969Y-37458677D01*
X121188589Y-37576410D01*
X121272561Y-37645323D01*
X121348550Y-37707685D01*
X121531046Y-37805232D01*
X121729066Y-37865300D01*
X121729065Y-37865300D01*
X121747529Y-37867118D01*
X121935000Y-37885583D01*
X122140934Y-37865300D01*
X122338954Y-37805232D01*
X122521450Y-37707685D01*
X122681410Y-37576410D01*
X122812685Y-37416450D01*
X122910232Y-37233954D01*
X122970300Y-37035934D01*
X122979001Y-36947596D01*
X128517500Y-36947596D01*
X128517500Y-38587101D01*
X128529131Y-38645578D01*
X128529132Y-38645579D01*
X128573447Y-38711901D01*
X128639769Y-38756216D01*
X128639770Y-38756217D01*
X128698247Y-38767848D01*
X128698250Y-38767849D01*
X128698252Y-38767849D01*
X130337750Y-38767849D01*
X130337751Y-38767848D01*
X130352568Y-38764901D01*
X130396229Y-38756217D01*
X130396229Y-38756216D01*
X130396231Y-38756216D01*
X130462552Y-38711901D01*
X130506867Y-38645580D01*
X130506867Y-38645578D01*
X130506868Y-38645578D01*
X130518499Y-38587101D01*
X130518500Y-38587099D01*
X130518500Y-38525705D01*
X146931000Y-38525705D01*
X146931000Y-38690294D01*
X146963105Y-38851698D01*
X146963107Y-38851706D01*
X146994061Y-38926435D01*
X147003500Y-38973888D01*
X147003500Y-39287269D01*
X147006353Y-39317699D01*
X147006353Y-39317701D01*
X147051206Y-39445880D01*
X147051207Y-39445882D01*
X147131850Y-39555150D01*
X147241118Y-39635793D01*
X147272766Y-39646867D01*
X147369299Y-39680646D01*
X147399730Y-39683500D01*
X147399734Y-39683500D01*
X148133270Y-39683500D01*
X148163699Y-39680646D01*
X148163701Y-39680646D01*
X148227790Y-39658219D01*
X148291882Y-39635793D01*
X148401150Y-39555150D01*
X148446379Y-39493865D01*
X148502026Y-39451616D01*
X148546149Y-39443500D01*
X149180216Y-39443500D01*
X149221104Y-39450435D01*
X149299303Y-39477748D01*
X150176078Y-39783983D01*
X150232876Y-39824672D01*
X150249048Y-39851934D01*
X150349107Y-40083895D01*
X150349113Y-40083908D01*
X150523870Y-40386597D01*
X150732584Y-40666949D01*
X150732589Y-40666955D01*
X150832889Y-40773266D01*
X150972442Y-40921183D01*
X151148903Y-41069251D01*
X151240186Y-41145847D01*
X151240194Y-41145853D01*
X151532203Y-41337911D01*
X151782233Y-41463481D01*
X151844549Y-41494777D01*
X152172989Y-41614319D01*
X152513086Y-41694923D01*
X152860241Y-41735500D01*
X152860248Y-41735500D01*
X153209752Y-41735500D01*
X153209759Y-41735500D01*
X153556914Y-41694923D01*
X153897011Y-41614319D01*
X154225451Y-41494777D01*
X154537793Y-41337913D01*
X154829811Y-41145849D01*
X155097558Y-40921183D01*
X155337412Y-40666953D01*
X155546130Y-40386596D01*
X155720889Y-40083904D01*
X155859326Y-39762971D01*
X155959569Y-39428136D01*
X155967054Y-39385690D01*
X156020260Y-39083938D01*
X156020259Y-39083938D01*
X156020262Y-39083927D01*
X156040585Y-38735000D01*
X156020262Y-38386073D01*
X155994878Y-38242112D01*
X155959571Y-38041872D01*
X155959569Y-38041865D01*
X155959569Y-38041864D01*
X155859326Y-37707029D01*
X155720889Y-37386096D01*
X155546130Y-37083404D01*
X155510790Y-37035934D01*
X155337415Y-36803050D01*
X155337410Y-36803044D01*
X155180761Y-36637007D01*
X155097558Y-36548817D01*
X154877391Y-36364075D01*
X154829813Y-36324152D01*
X154829805Y-36324146D01*
X154537796Y-36132088D01*
X154225458Y-35975226D01*
X154225452Y-35975223D01*
X153897012Y-35855681D01*
X153897009Y-35855680D01*
X153556915Y-35775077D01*
X153513519Y-35770004D01*
X153209759Y-35734500D01*
X152860241Y-35734500D01*
X152556480Y-35770004D01*
X152513085Y-35775077D01*
X152513083Y-35775077D01*
X152172990Y-35855680D01*
X152172987Y-35855681D01*
X151844547Y-35975223D01*
X151844541Y-35975226D01*
X151532203Y-36132088D01*
X151240194Y-36324146D01*
X151240186Y-36324152D01*
X150972442Y-36548817D01*
X150972440Y-36548819D01*
X150732589Y-36803044D01*
X150732584Y-36803050D01*
X150523870Y-37083402D01*
X150349113Y-37386091D01*
X150349107Y-37386104D01*
X150332547Y-37424495D01*
X150287919Y-37478255D01*
X150250468Y-37495239D01*
X149220398Y-37768358D01*
X149188618Y-37772500D01*
X148546149Y-37772500D01*
X148479110Y-37752815D01*
X148446379Y-37722134D01*
X148401150Y-37660850D01*
X148291882Y-37580207D01*
X148291880Y-37580206D01*
X148163700Y-37535353D01*
X148133270Y-37532500D01*
X148133266Y-37532500D01*
X147399734Y-37532500D01*
X147399730Y-37532500D01*
X147369300Y-37535353D01*
X147369298Y-37535353D01*
X147241119Y-37580206D01*
X147241117Y-37580207D01*
X147131850Y-37660850D01*
X147051207Y-37770117D01*
X147051206Y-37770119D01*
X147006353Y-37898298D01*
X147006353Y-37898300D01*
X147003500Y-37928730D01*
X147003500Y-38242112D01*
X146994061Y-38289564D01*
X146963108Y-38364290D01*
X146963105Y-38364302D01*
X146931000Y-38525705D01*
X130518500Y-38525705D01*
X130518500Y-37933013D01*
X143779000Y-37933013D01*
X143779000Y-38358000D01*
X144591500Y-38358000D01*
X145091500Y-38358000D01*
X145903999Y-38358000D01*
X145903999Y-37933028D01*
X145903998Y-37933013D01*
X145893505Y-37830302D01*
X145838358Y-37663880D01*
X145838356Y-37663875D01*
X145746315Y-37514654D01*
X145622345Y-37390684D01*
X145473124Y-37298643D01*
X145473119Y-37298641D01*
X145306697Y-37243494D01*
X145306690Y-37243493D01*
X145203986Y-37233000D01*
X145091500Y-37233000D01*
X145091500Y-38358000D01*
X144591500Y-38358000D01*
X144591500Y-37233000D01*
X144479027Y-37233000D01*
X144479012Y-37233001D01*
X144376302Y-37243494D01*
X144209880Y-37298641D01*
X144209875Y-37298643D01*
X144060654Y-37390684D01*
X143936684Y-37514654D01*
X143844643Y-37663875D01*
X143844641Y-37663880D01*
X143789494Y-37830302D01*
X143789493Y-37830309D01*
X143779000Y-37933013D01*
X130518500Y-37933013D01*
X130518500Y-36947598D01*
X130518499Y-36947596D01*
X130506868Y-36889119D01*
X130506867Y-36889118D01*
X130462552Y-36822796D01*
X130396230Y-36778481D01*
X130396229Y-36778480D01*
X130337752Y-36766849D01*
X130337748Y-36766849D01*
X128698252Y-36766849D01*
X128698247Y-36766849D01*
X128639770Y-36778480D01*
X128639769Y-36778481D01*
X128573447Y-36822796D01*
X128529132Y-36889118D01*
X128529131Y-36889119D01*
X128517500Y-36947596D01*
X122979001Y-36947596D01*
X122990583Y-36830000D01*
X122970300Y-36624066D01*
X122910232Y-36426046D01*
X122812685Y-36243550D01*
X122721211Y-36132088D01*
X122681410Y-36083589D01*
X122549367Y-35975226D01*
X122521450Y-35952315D01*
X122338954Y-35854768D01*
X122140934Y-35794700D01*
X122140932Y-35794699D01*
X122140934Y-35794699D01*
X121935000Y-35774417D01*
X121729067Y-35794699D01*
X121531043Y-35854769D01*
X121497634Y-35872627D01*
X121348550Y-35952315D01*
X121348548Y-35952316D01*
X121348547Y-35952317D01*
X121188589Y-36083589D01*
X121057317Y-36243547D01*
X120959769Y-36426043D01*
X120899699Y-36624067D01*
X120879417Y-36830000D01*
X120450583Y-36830000D01*
X120430300Y-36624066D01*
X120370232Y-36426046D01*
X120272685Y-36243550D01*
X120181211Y-36132088D01*
X120141410Y-36083589D01*
X120009367Y-35975226D01*
X119981450Y-35952315D01*
X119798954Y-35854768D01*
X119600934Y-35794700D01*
X119600932Y-35794699D01*
X119600934Y-35794699D01*
X119395000Y-35774417D01*
X119189067Y-35794699D01*
X118991043Y-35854769D01*
X118957634Y-35872627D01*
X118808550Y-35952315D01*
X118808548Y-35952316D01*
X118808547Y-35952317D01*
X118648589Y-36083589D01*
X118517317Y-36243547D01*
X118517315Y-36243550D01*
X118445887Y-36377181D01*
X118438358Y-36391267D01*
X118389395Y-36441111D01*
X118321257Y-36456571D01*
X118255578Y-36432739D01*
X118213209Y-36377181D01*
X118205000Y-36332813D01*
X118205000Y-35932172D01*
X118204999Y-35932155D01*
X118198598Y-35872627D01*
X118198596Y-35872620D01*
X118148354Y-35737913D01*
X118148350Y-35737906D01*
X118062190Y-35622812D01*
X118062187Y-35622809D01*
X117947093Y-35536649D01*
X117947086Y-35536645D01*
X117812379Y-35486403D01*
X117812372Y-35486401D01*
X117752844Y-35480000D01*
X117105000Y-35480000D01*
X117105000Y-36396988D01*
X117047993Y-36364075D01*
X116920826Y-36330000D01*
X116789174Y-36330000D01*
X116662007Y-36364075D01*
X116605000Y-36396988D01*
X116605000Y-35480000D01*
X115957155Y-35480000D01*
X115897627Y-35486401D01*
X115897620Y-35486403D01*
X115762913Y-35536645D01*
X115762906Y-35536649D01*
X115647812Y-35622809D01*
X115647809Y-35622812D01*
X115561649Y-35737906D01*
X115561645Y-35737913D01*
X115511403Y-35872620D01*
X115511401Y-35872627D01*
X115505000Y-35932155D01*
X102783734Y-35932155D01*
X102638954Y-35854768D01*
X102440934Y-35794700D01*
X102440932Y-35794699D01*
X102440934Y-35794699D01*
X102235000Y-35774417D01*
X102029067Y-35794699D01*
X101831043Y-35854769D01*
X101797634Y-35872627D01*
X101648550Y-35952315D01*
X101648548Y-35952316D01*
X101648547Y-35952317D01*
X101488589Y-36083589D01*
X101357317Y-36243547D01*
X101259769Y-36426043D01*
X101199699Y-36624067D01*
X101179417Y-36830000D01*
X100750583Y-36830000D01*
X100730300Y-36624066D01*
X100670232Y-36426046D01*
X100572685Y-36243550D01*
X100481211Y-36132088D01*
X100441410Y-36083589D01*
X100309367Y-35975226D01*
X100281450Y-35952315D01*
X100098954Y-35854768D01*
X99900934Y-35794700D01*
X99900932Y-35794699D01*
X99900934Y-35794699D01*
X99695000Y-35774417D01*
X99489067Y-35794699D01*
X99291043Y-35854769D01*
X99257634Y-35872627D01*
X99108550Y-35952315D01*
X99108548Y-35952316D01*
X99108547Y-35952317D01*
X98948589Y-36083589D01*
X98817317Y-36243547D01*
X98817315Y-36243550D01*
X98745887Y-36377181D01*
X98738358Y-36391267D01*
X98689395Y-36441111D01*
X98621257Y-36456571D01*
X98555578Y-36432739D01*
X98513209Y-36377181D01*
X98505000Y-36332813D01*
X98505000Y-35932172D01*
X98504999Y-35932155D01*
X98498598Y-35872627D01*
X98498596Y-35872620D01*
X98448354Y-35737913D01*
X98448350Y-35737906D01*
X98362190Y-35622812D01*
X98362187Y-35622809D01*
X98247093Y-35536649D01*
X98247086Y-35536645D01*
X98112379Y-35486403D01*
X98112372Y-35486401D01*
X98052844Y-35480000D01*
X97405000Y-35480000D01*
X97405000Y-36396988D01*
X97347993Y-36364075D01*
X97220826Y-36330000D01*
X97089174Y-36330000D01*
X96962007Y-36364075D01*
X96905000Y-36396988D01*
X96905000Y-35480000D01*
X96257155Y-35480000D01*
X96197627Y-35486401D01*
X96197620Y-35486403D01*
X96062913Y-35536645D01*
X96062906Y-35536649D01*
X95947812Y-35622809D01*
X95947809Y-35622812D01*
X95861649Y-35737906D01*
X95861645Y-35737913D01*
X95811403Y-35872620D01*
X95811401Y-35872627D01*
X95805000Y-35932155D01*
X65842123Y-35932155D01*
X65632012Y-35855681D01*
X65632009Y-35855680D01*
X65291915Y-35775077D01*
X65248519Y-35770004D01*
X64944759Y-35734500D01*
X64595241Y-35734500D01*
X64291480Y-35770004D01*
X64248085Y-35775077D01*
X64248083Y-35775077D01*
X63907990Y-35855680D01*
X63907987Y-35855681D01*
X63579547Y-35975223D01*
X63579541Y-35975226D01*
X63267203Y-36132088D01*
X62975194Y-36324146D01*
X62975186Y-36324152D01*
X62707442Y-36548817D01*
X62707440Y-36548819D01*
X62467589Y-36803044D01*
X62467584Y-36803050D01*
X62258870Y-37083402D01*
X62084113Y-37386091D01*
X62084107Y-37386104D01*
X61945674Y-37707027D01*
X61845430Y-38041865D01*
X61845428Y-38041872D01*
X61784739Y-38386061D01*
X61784738Y-38386072D01*
X61764415Y-38734996D01*
X60325000Y-38734996D01*
X60325000Y-34414000D01*
X60344685Y-34346961D01*
X60397489Y-34301206D01*
X60449000Y-34290000D01*
X157356000Y-34290000D01*
X157423039Y-34309685D01*
G37*
G04 #@! TD.AperFunction*
G04 #@! TA.AperFunction,Conductor*
G36*
X67400581Y-37823935D02*
G01*
X68546738Y-38224261D01*
X68553417Y-38230224D01*
X68554579Y-38235306D01*
X68554579Y-39487998D01*
X68551152Y-39496271D01*
X68545878Y-39499307D01*
X67334584Y-39820476D01*
X67327017Y-39819938D01*
X64796964Y-38746860D01*
X64790685Y-38740475D01*
X64790761Y-38731521D01*
X64797146Y-38725242D01*
X64797665Y-38725046D01*
X67392888Y-37823929D01*
X67400581Y-37823935D01*
G37*
G04 #@! TD.AperFunction*
G04 #@! TA.AperFunction,Conductor*
G36*
X150477979Y-37650059D02*
G01*
X153008035Y-38723139D01*
X153014314Y-38729524D01*
X153014238Y-38738478D01*
X153007853Y-38744757D01*
X153007305Y-38744963D01*
X150412112Y-39646069D01*
X150404416Y-39646062D01*
X149258263Y-39245739D01*
X149251583Y-39239775D01*
X149250421Y-39234693D01*
X149250421Y-37982001D01*
X149253848Y-37973728D01*
X149259118Y-37970693D01*
X150470416Y-37649522D01*
X150477979Y-37650059D01*
G37*
G04 #@! TD.AperFunction*
G04 #@! TA.AperFunction,Conductor*
G36*
X67654132Y-74046523D02*
G01*
X67659854Y-74053411D01*
X67660379Y-74056875D01*
X67660379Y-75309462D01*
X67659981Y-75312487D01*
X67457062Y-76070696D01*
X67451613Y-76077802D01*
X67448937Y-76078931D01*
X64798328Y-76826725D01*
X64789435Y-76825674D01*
X64783891Y-76818642D01*
X64784942Y-76809749D01*
X64785233Y-76809260D01*
X66254382Y-74479769D01*
X66260811Y-74474837D01*
X67645216Y-74045700D01*
X67654132Y-74046523D01*
G37*
G04 #@! TD.AperFunction*
G04 #@! TA.AperFunction,Conductor*
G36*
X150643192Y-75413978D02*
G01*
X153009820Y-76819452D01*
X153015184Y-76826623D01*
X153013906Y-76835486D01*
X153006735Y-76840850D01*
X153006146Y-76840984D01*
X150305769Y-77382311D01*
X150297799Y-77381073D01*
X149318133Y-76838340D01*
X149312557Y-76831334D01*
X149312103Y-76828106D01*
X149312103Y-75575428D01*
X149315530Y-75567155D01*
X149322460Y-75563806D01*
X150635883Y-75412416D01*
X150643192Y-75413978D01*
G37*
G04 #@! TD.AperFunction*
M02*
