M48
; DRILL file {KiCad 8.0.4} date 2024-08-16T09:38:18+0200
; FORMAT={-:-/ absolute / metric / decimal}
; #@! TF.CreationDate,2024-08-16T09:38:18+02:00
; #@! TF.GenerationSoftware,Kicad,Pcbnew,8.0.4
; #@! TF.FileFunction,Plated,1,2,PTH
FMAT,2
METRIC
; #@! TA.AperFunction,Plated,PTH,ViaDrill
T1C0.400
; #@! TA.AperFunction,Plated,PTH,ComponentDrill
T2C0.800
; #@! TA.AperFunction,Plated,PTH,ComponentDrill
T3C1.000
; #@! TA.AperFunction,Plated,PTH,ComponentDrill
T4C3.200
%
G90
G05
T1
X75.692Y-72.39
X78.916Y-70.55
X79.231Y-54.464
X79.248Y-52.832
X79.258Y-46.532
X82.169Y-54.548
X82.472Y-70.55
X85.09Y-80.01
X85.344Y-72.39
X85.598Y-73.914
X90.805Y-73.66
X90.939Y-65.285
X91.567Y-60.644
X92.268Y-55.31
X94.488Y-43.434
X98.552Y-72.136
X98.806Y-69.596
X98.9Y-56.53
X98.922Y-64.658
X102.362Y-76.2
X104.615Y-70.296
X105.123Y-54.802
X107.409Y-70.296
X107.917Y-67.121
X108.093Y-54.851
X108.944Y-36.83
X108.944Y-40.64
X109.22Y-53.848
X114.808Y-56.642
X123.157Y-60.898
X123.306Y-64.658
X130.048Y-75.692
T2
X69.723Y-50.611
X69.723Y-53.111
X72.43Y-78.486
X77.43Y-78.486
X78.21Y-38.658
X78.21Y-41.158
X78.232Y-74.676
X83.232Y-74.676
X88.265Y-48.96
X88.265Y-51.46
X91.197Y-38.912
X91.197Y-41.412
X114.3Y-74.764
X114.3Y-77.264
X123.952Y-45.974
X123.952Y-49.474
X128.27Y-67.564
X128.27Y-70.064
X129.518Y-37.767
X129.518Y-41.267
X130.048Y-57.43
X130.048Y-59.93
X136.652Y-65.024
X136.652Y-67.524
T3
X89.535Y-76.2
X89.535Y-78.74
X92.035Y-76.24
X92.035Y-78.74
X94.535Y-78.74
X94.615Y-76.2
X97.155Y-36.83
X99.695Y-36.83
X100.838Y-78.74
X102.235Y-36.83
X103.378Y-78.74
X104.394Y-44.704
X105.918Y-78.74
X106.934Y-44.704
X109.474Y-44.704
X116.855Y-36.83
X119.395Y-36.83
X119.888Y-78.74
X121.935Y-36.83
X122.428Y-78.74
X133.858Y-78.74
X136.398Y-78.74
X152.4Y-57.342
X152.4Y-59.882
X152.4Y-62.422
X152.4Y-64.962
X152.4Y-67.502
X154.94Y-57.342
X154.94Y-59.882
X154.94Y-62.422
X154.94Y-64.962
X154.94Y-67.502
T4
X64.77Y-38.735
X64.77Y-76.835
X153.035Y-38.735
X153.035Y-76.835
M30
